<svg width="171" height="107" viewBox="0 0 171 107" fill="none" xmlns="http://www.w3.org/2000/svg">
<g clip-path="url(#clip0_227_4508)">
<path d="M61.4376 61.8724C69.1887 61.8724 75.4722 55.2639 75.4722 47.112C75.4722 38.96 69.1887 32.3516 61.4376 32.3516C53.6865 32.3516 47.403 38.96 47.403 47.112C47.403 55.2639 53.6865 61.8724 61.4376 61.8724Z" fill="white"/>
<path d="M61.4376 54.6562C65.2693 54.6562 68.3755 51.2782 68.3755 47.1113C68.3755 42.9444 65.2693 39.5664 61.4376 39.5664C57.6059 39.5664 54.4996 42.9444 54.4996 47.1113C54.4996 51.2782 57.6059 54.6562 61.4376 54.6562Z" fill="#0B033B"/>
<path d="M136.735 49.716C136.735 68.3879 113.665 83.5291 85.199 83.5291C56.7329 83.5291 33.6517 68.3879 33.6517 49.716C33.6517 48.6353 33.7311 47.5751 33.8898 46.5149H33.8671L40.7257 3.77761C40.7144 3.67467 40.7144 3.58204 40.7144 3.4791C40.7144 0.545549 44.5802 -1.12195 47.0855 0.87493L64.4531 14.6884C66.7771 16.5411 69.906 17.3646 72.9555 16.8705C76.8779 16.2529 80.9818 15.9133 85.199 15.9133C89.4161 15.9133 93.7014 16.2632 97.7145 16.922C100.775 17.4264 103.916 16.6132 106.251 14.7501L123.686 0.87493C126.271 -1.1837 130.318 0.64848 130.046 3.76731L136.338 45.5061L136.576 47.1016C136.678 47.9765 136.735 48.8411 136.735 49.716Z" fill="#0B033B"/>
<path d="M109.13 61.8724C116.881 61.8724 123.165 55.2639 123.165 47.112C123.165 38.96 116.881 32.3516 109.13 32.3516C101.379 32.3516 95.0957 38.96 95.0957 47.112C95.0957 55.2639 101.379 61.8724 109.13 61.8724Z" fill="white"/>
<path d="M109.268 66.0898C113.1 66.0898 116.206 62.7118 116.206 58.5449C116.206 54.378 113.1 51 109.268 51C105.436 51 102.33 54.378 102.33 58.5449C102.33 62.7118 105.436 66.0898 109.268 66.0898Z" fill="#0B033B"/>
<path d="M10.8879 36.7878L26.2489 42.7063C27.4279 43.1592 28.0401 44.3429 27.6659 45.4546C27.0424 47.3074 25.1946 48.6043 23.0633 48.6764L7.75899 49.1704C4.52808 49.2734 1.67127 47.2971 0.923062 44.4459C-0.471332 39.1449 5.36698 34.6571 10.8879 36.7878Z" fill="#0B033B"/>
<path d="M13.9601 50.3957L25.308 50.334C26.1809 50.334 26.9064 50.9207 27.0085 51.703C27.1785 53.0102 26.4076 54.2763 25.0926 54.8321L15.6833 58.8876C13.6994 59.7419 11.33 59.2067 10.015 57.6113C7.56631 54.6468 9.8903 50.4163 13.9601 50.3957Z" fill="#0B033B"/>
<path d="M61.4376 61.8724C69.1887 61.8724 75.4722 55.2639 75.4722 47.112C75.4722 38.96 69.1887 32.3516 61.4376 32.3516C53.6865 32.3516 47.403 38.96 47.403 47.112C47.403 55.2639 53.6865 61.8724 61.4376 61.8724Z" fill="white"/>
<path d="M61.0759 66.0898C64.9076 66.0898 68.0139 62.7118 68.0139 58.5449C68.0139 54.378 64.9076 51 61.0759 51C57.2442 51 54.1379 54.378 54.1379 58.5449C54.1379 62.7118 57.2442 66.0898 61.0759 66.0898Z" fill="#0B033B"/>
<path d="M159.422 36.6237L144.061 42.5423C142.882 42.9952 142.27 44.1789 142.644 45.2905C143.268 47.1433 145.115 48.4403 147.247 48.5123L162.551 49.0064C165.782 49.1093 168.639 47.133 169.387 44.2818C170.781 38.9808 164.943 34.493 159.422 36.6237Z" fill="#0B033B"/>
<path d="M156.339 50.2297L144.991 50.168C144.118 50.168 143.392 50.7547 143.29 51.537C143.12 52.8442 143.891 54.1103 145.206 54.6661L154.615 58.7216C156.599 59.5759 158.969 59.0407 160.284 57.4452C162.732 54.4808 160.408 50.2503 156.339 50.2297Z" fill="#0B033B"/>
</g>
<path d="M60.2074 98.0326C60.3471 95.3335 57.8101 92.9653 54.541 92.7431C51.2718 92.5209 48.5084 94.5289 48.3688 97.228C48.2291 99.9272 50.766 102.295 54.0352 102.518C57.3043 102.74 60.0677 100.732 60.2074 98.0326Z" fill="#0B033B"/>
<path d="M77.1197 98.6551C77.2774 95.6082 74.4136 92.9349 70.7232 92.6841C67.0329 92.4333 63.9135 94.7 63.7558 97.7468C63.5982 100.794 66.4619 103.467 70.1523 103.718C73.8426 103.969 76.962 101.702 77.1197 98.6551Z" fill="#0B033B"/>
<path d="M67.924 100.745C68.0637 98.0464 65.5268 95.6782 62.2576 95.456C58.9885 95.2338 56.2251 97.2418 56.0854 99.9409C55.9458 102.64 58.4827 105.008 61.7518 105.23C65.021 105.453 67.7844 103.445 67.924 100.745Z" fill="#0B033B"/>
<path d="M50.4898 89.4448L55.5004 69.7315C55.8882 68.2233 57.6706 67.2312 59.6269 67.4544C62.9064 67.8127 65.6475 69.7742 66.4266 72.3245L72.0567 90.6397C73.2419 94.4964 70.8559 98.351 66.3505 99.8501C57.9704 102.635 48.6838 96.5282 50.4717 89.4436L50.4898 89.4448Z" fill="#0B033B"/>
<path d="M111.786 97.0482C111.647 94.3491 114.184 91.9809 117.453 91.7587C120.722 91.5366 123.485 93.5445 123.625 96.2437C123.765 98.9428 121.228 101.311 117.959 101.533C114.689 101.755 111.926 99.7474 111.786 97.0482Z" fill="#0B033B"/>
<path d="M94.8742 97.6687C94.7165 94.6219 97.5803 91.9486 101.271 91.6978C104.961 91.447 108.08 93.7136 108.238 96.7605C108.396 99.8074 105.532 102.481 101.842 102.731C98.1513 102.982 95.0319 100.716 94.8742 97.6687Z" fill="#0B033B"/>
<path d="M104.07 99.7592C103.93 97.06 106.467 94.6919 109.736 94.4697C113.006 94.2475 115.769 96.2555 115.909 98.9546C116.048 101.654 113.511 104.022 110.242 104.244C106.973 104.466 104.21 102.458 104.07 99.7592Z" fill="#0B033B"/>
<path d="M121.504 88.4585L116.493 68.7452C116.106 67.237 114.323 66.2449 112.367 66.4681C109.087 66.8264 106.346 68.7879 105.567 71.3382L99.9372 89.6534C98.752 93.51 101.138 97.3647 105.643 98.8638C114.024 101.649 123.31 95.5419 121.522 88.4572L121.504 88.4585Z" fill="#0B033B"/>
<defs>
<clipPath id="clip0_227_4508">
<rect width="169.719" height="83.5291" fill="white" transform="translate(0.707764)"/>
</clipPath>
</defs>
</svg>
