<svg width="41" height="31" viewBox="0 0 41 31" fill="none" xmlns="http://www.w3.org/2000/svg">
<g clip-path="url(#clip0_442_356)">
<path d="M31.897 0H9.09964C4.08202 0 0 4.10078 0 9.14145V21.8585C0 26.8992 4.08202 31 9.09964 31H31.897C36.9147 31 41 26.8992 41 21.8585V9.14145C41 4.10078 36.9147 0 31.897 0ZM38.3364 21.8585C38.3364 25.4241 35.4463 28.3241 31.897 28.3241H9.09964C5.55035 28.3241 2.66364 25.4241 2.66364 21.8585V9.14145C2.66364 5.57585 5.55035 2.67587 9.09964 2.67587H31.897C35.4463 2.67587 38.3364 5.57585 38.3364 9.14145V21.8585Z" fill="white"/>
<path d="M15.772 15.7476C15.7653 15.7878 15.7553 15.8313 15.742 15.8714C15.732 15.9115 15.7187 15.9517 15.7021 15.9885C15.6888 16.0253 15.6721 16.0621 15.6555 16.0955C15.6521 16.1022 15.6488 16.1089 15.6488 16.1156C15.6321 16.139 15.6222 16.1624 15.6055 16.1858C15.5589 16.2728 15.4956 16.3531 15.4257 16.4266L15.3658 16.4868L7.11518 25.1567C6.85547 25.431 6.50254 25.5681 6.15294 25.5681C5.82331 25.5681 5.49036 25.4443 5.23398 25.1968C4.70126 24.6884 4.68128 23.8388 5.1907 23.307L12.6422 15.48L5.05419 7.15474C4.55809 6.60953 4.59471 5.76328 5.13743 5.2649C5.68014 4.76652 6.52252 4.80331 7.01862 5.34852L15.3858 14.5335C15.4091 14.5569 15.4324 14.5769 15.4524 14.6037C15.4757 14.6271 15.4956 14.6539 15.5156 14.6806C15.5256 14.6907 15.5323 14.7007 15.5389 14.7141C15.5589 14.7408 15.5789 14.7676 15.5955 14.7944C15.5989 14.7977 15.6022 14.801 15.6022 14.8077C15.6222 14.8412 15.6421 14.8746 15.6555 14.9081C15.6821 14.9516 15.7021 14.9984 15.7154 15.0486C15.7287 15.0787 15.7387 15.1088 15.7454 15.1422C15.7587 15.1723 15.7653 15.2058 15.7687 15.2392C15.7753 15.2727 15.782 15.3061 15.7853 15.3429C15.802 15.4767 15.7986 15.6138 15.772 15.7476Z" fill="white"/>
<path d="M35.7793 25.1834C35.5195 25.441 35.1833 25.5681 34.8437 25.5681C34.504 25.5681 34.1578 25.4343 33.8947 25.1701L25.3478 16.44C25.3311 16.42 25.3112 16.4032 25.2979 16.3832C25.2712 16.3531 25.2479 16.3229 25.2246 16.2928C25.188 16.246 25.158 16.1992 25.1347 16.1524C25.1114 16.1122 25.0914 16.0721 25.0748 16.0286C25.0615 15.9985 25.0481 15.9684 25.0381 15.9383C24.9749 15.7543 24.9516 15.5603 24.9716 15.3697C24.9782 15.2927 24.9915 15.2158 25.0148 15.1422C25.0648 14.9583 25.1547 14.7843 25.2879 14.6305C25.2945 14.6171 25.3045 14.607 25.3145 14.597L33.7449 5.34852C34.241 4.80331 35.0834 4.76652 35.6261 5.2649C36.1688 5.76328 36.2054 6.60953 35.7093 7.15474L28.1313 15.4667L35.7959 23.2936C36.312 23.8187 36.302 24.665 35.7793 25.1834Z" fill="white"/>
<path d="M23.9049 16.3157C23.551 16.7668 23.0026 17.5512 22.6347 17.9885C21.6491 19.1685 20.9203 21.5353 20.2748 21.1189C19.2614 19.8764 18.6922 19.453 17.9009 17.9954C17.6164 17.4679 17.2415 16.989 16.839 16.5517C15.1731 14.7401 16.4294 12.623 18.1716 12.623C18.7824 12.623 19.3308 12.8799 19.7195 13.2963C20.0249 13.6226 20.5177 13.6226 20.8231 13.2963C21.2118 12.8799 21.7602 12.623 22.371 12.623C24.0438 12.623 25.2654 14.5596 23.9049 16.3157Z" fill="white"/>
<path d="M15.8463 12.6638C16.866 12.6638 17.6926 11.7439 17.6926 10.6092C17.6926 9.47454 16.866 8.55469 15.8463 8.55469C14.8266 8.55469 14 9.47454 14 10.6092C14 11.7439 14.8266 12.6638 15.8463 12.6638Z" fill="white"/>
<path d="M20.3164 11.1091C21.3361 11.1091 22.1627 10.1892 22.1627 9.05455C22.1627 7.91985 21.3361 7 20.3164 7C19.2967 7 18.4701 7.91985 18.4701 9.05455C18.4701 10.1892 19.2967 11.1091 20.3164 11.1091Z" fill="white"/>
<path d="M25.2306 12.6638C26.2503 12.6638 27.0769 11.7439 27.0769 10.6092C27.0769 9.47454 26.2503 8.55469 25.2306 8.55469C24.2109 8.55469 23.3843 9.47454 23.3843 10.6092C23.3843 11.7439 24.2109 12.6638 25.2306 12.6638Z" fill="white"/>
<circle cx="20.5" cy="16.5" r="1.5" fill="#0B033B"/>
</g>
<defs>
<clipPath id="clip0_442_356">
<rect width="41" height="31" fill="white"/>
</clipPath>
</defs>
</svg>
