<svg width="155" height="148" viewBox="0 0 155 148" fill="none" xmlns="http://www.w3.org/2000/svg">
<g clip-path="url(#clip0_442_395)">
<path d="M76.8018 132.024C113.259 132.024 142.814 102.469 142.814 66.0118C142.814 29.5545 113.259 0 76.8018 0C40.3445 0 10.79 29.5545 10.79 66.0118C10.79 102.469 40.3445 132.024 76.8018 132.024Z" fill="#F8D7F9"/>
<path d="M39.1894 25.3362L40.7001 24.296L43.6639 27.2432L43.796 27.4001L43.8455 27.367L43.7465 27.1854L42.4173 23.231L43.5566 22.4467L46.768 25.105L46.9166 25.2536L46.9496 25.2288L46.8506 25.0472L45.1334 21.2414L46.6442 20.2012L48.9888 26.236L47.3129 27.3835L44.5225 25.039L44.3739 24.8738L44.4812 25.0637L45.6452 28.5311L43.9694 29.6786L39.1729 25.3279L39.1894 25.3362Z" fill="#0B033B"/>
<path d="M47.9899 19.607L52.0516 17.5762L52.6295 18.732L50.0785 20.0033L50.5986 21.0518L52.8029 19.9455L53.3808 21.1013L51.1765 22.2076L51.7462 23.3386L54.3549 22.0342L54.9328 23.1817L50.8215 25.2374L48.0064 19.5988L47.9899 19.607Z" fill="#0B033B"/>
<path d="M53.3724 16.9737L55.1309 16.3298L58.4331 19.2523L57.0957 15.6033L58.6808 15.0254L60.852 20.9364L59.0523 21.5968L55.8491 18.7982L57.137 22.3068L55.5602 22.8847L53.3807 16.9737H53.3724Z" fill="#0B033B"/>
<path d="M60.2495 14.9105C60.5219 14.7124 60.8439 14.5308 61.2236 14.3822C61.6034 14.2253 61.9749 14.1097 62.3464 14.0189C63.4526 13.7547 64.3525 13.829 65.046 14.2253C65.7394 14.6216 66.2018 15.3316 66.4412 16.347C66.565 16.8836 66.598 17.3707 66.532 17.7917C66.4659 18.2128 66.3173 18.5843 66.0862 18.898C65.855 19.2117 65.5578 19.4759 65.1863 19.6823C64.8148 19.8887 64.3938 20.0538 63.915 20.1611L61.6034 20.706L60.2412 14.9105H60.2495ZM63.5435 18.931C64.0305 18.8154 64.3855 18.576 64.5919 18.221C64.7983 17.866 64.8313 17.3789 64.691 16.7598C64.5506 16.1654 64.3112 15.7526 63.9727 15.5214C63.6343 15.282 63.205 15.2325 62.6931 15.3481C62.6023 15.3728 62.5115 15.3976 62.4207 15.4306C62.3299 15.4636 62.2391 15.5049 62.1565 15.5462L62.9821 19.0631L63.5517 18.931H63.5435Z" fill="#0B033B"/>
<path d="M69.2728 16.7578L66.3668 13.1336L68.3234 12.9107L69.9085 15.082H69.9663L70.9239 12.6135L72.864 12.3906L71.1386 16.4937L71.4193 18.9043L69.537 19.1189L69.2645 16.7661L69.2728 16.7578Z" fill="#0B033B"/>
<path d="M76.901 12.3008L78.5851 12.3833L78.4613 14.8848L80.4096 14.9839L80.5335 12.4824L82.2176 12.565L81.9039 18.8557L80.2197 18.7732L80.3436 16.3213L78.3953 16.2222L78.2714 18.6741L76.5873 18.5916L76.901 12.3008Z" fill="#0B033B"/>
<path d="M83.7201 12.7465L88.2029 13.4565L87.9965 14.7279L85.1814 14.2821L84.9997 15.4379L87.4351 15.8259L87.2288 17.0972L84.7933 16.7092L84.5952 17.9641L87.4682 18.4181L87.2618 19.6895L82.7212 18.963L83.7119 12.7383L83.7201 12.7465Z" fill="#0B033B"/>
<path d="M89.6311 13.7368L91.4391 14.2321L92.4215 18.5333L93.4534 14.7852L95.0798 15.231L93.4039 21.3072L91.5464 20.7953L90.5722 16.651L89.5816 20.2504L87.9552 19.8046L89.6311 13.7285V13.7368Z" fill="#0B033B"/>
<path d="M98.2087 16.4199L100.066 17.1794L99.5296 23.7839L97.8537 23.0987L97.9775 21.8026L96.3264 21.1256L95.5009 22.1411L93.7837 21.4393L98.1922 16.4282L98.2087 16.4199ZM98.25 20.4074L98.4481 18.5334L98.4151 18.5168L97.2015 19.9781L98.25 20.4074Z" fill="#0B033B"/>
<path d="M102.832 18.4189L104.31 19.2279L102.402 22.687C102.237 22.9842 102.196 23.2401 102.262 23.4713C102.328 23.7024 102.493 23.8841 102.757 24.0327C103.294 24.3299 103.723 24.1813 104.054 23.5951L105.961 20.1278L107.438 20.9368L105.515 24.4289C105.143 25.1059 104.673 25.5187 104.095 25.6673C103.517 25.8159 102.848 25.6673 102.072 25.2462C101.296 24.8252 100.817 24.3216 100.636 23.7602C100.454 23.1988 100.545 22.5714 100.916 21.8945L102.84 18.4023L102.832 18.4189Z" fill="#0B033B"/>
<path d="M108.669 21.7539L110.055 22.7116L107.265 26.7568L109.246 28.1272L108.454 29.2665L105.086 26.9384L108.669 21.7539Z" fill="#0B033B"/>
<path d="M112.359 26.0298L111.087 25.0061L111.913 23.9824L115.768 27.0948L114.943 28.1185L113.671 27.0948L110.542 30.9749L109.23 29.9182L112.359 26.0381V26.0298Z" fill="#0B033B"/>
<path d="M59.2257 87.1946C64.8703 87.1946 69.4461 81.8944 69.4461 75.3561C69.4461 68.8179 64.8703 63.5176 59.2257 63.5176C53.5811 63.5176 49.0052 68.8179 49.0052 75.3561C49.0052 81.8944 53.5811 87.1946 59.2257 87.1946Z" fill="white"/>
<path d="M59.2258 81.4094C62.0161 81.4094 64.2782 78.7001 64.2782 75.358C64.2782 72.0159 62.0161 69.3066 59.2258 69.3066C56.4354 69.3066 54.1733 72.0159 54.1733 75.358C54.1733 78.7001 56.4354 81.4094 59.2258 81.4094Z" fill="#0B033B"/>
<path d="M114.068 77.4375C114.068 92.4131 97.2676 104.557 76.5377 104.557C55.8079 104.557 38.9995 92.4131 38.9995 77.4375C38.9995 76.5706 39.0573 75.7203 39.1729 74.87H39.1564L44.151 40.5927C44.1428 40.5101 44.1428 40.4358 44.1428 40.3533C44.1428 38.0004 46.9579 36.663 48.7824 38.2646L61.43 49.3436C63.1224 50.8296 65.4009 51.4901 67.6217 51.0938C70.4781 50.5985 73.4667 50.3261 76.5377 50.3261C79.6088 50.3261 82.7294 50.6067 85.6519 51.1351C87.8809 51.5396 90.1677 50.8874 91.8684 49.3932L104.566 38.2646C106.448 36.6135 109.395 38.083 109.197 40.5844L113.779 74.0609L113.952 75.3405C114.026 76.0423 114.068 76.7357 114.068 77.4375Z" fill="#0B033B"/>
<path d="M93.9653 87.1946C99.6099 87.1946 104.186 81.8944 104.186 75.3561C104.186 68.8179 99.6099 63.5176 93.9653 63.5176C88.3207 63.5176 83.7449 68.8179 83.7449 75.3561C83.7449 81.8944 88.3207 87.1946 93.9653 87.1946Z" fill="white"/>
<path d="M93.9653 81.4094C96.7557 81.4094 99.0177 78.7001 99.0177 75.358C99.0177 72.0159 96.7557 69.3066 93.9653 69.3066C91.1749 69.3066 88.9128 72.0159 88.9128 75.358C88.9128 78.7001 91.1749 81.4094 93.9653 81.4094Z" fill="#0B033B"/>
<path d="M23.2395 67.077L34.4259 71.824C35.2845 72.1872 35.7303 73.1366 35.4578 74.0282C35.0038 75.5142 33.6581 76.5544 32.106 76.6122L20.961 77.0085C18.6081 77.0911 16.5277 75.506 15.9829 73.2192C14.9674 68.9675 19.219 65.3681 23.2395 67.077Z" fill="#0B033B"/>
<path d="M25.4851 77.9909L33.749 77.9414C34.3846 77.9414 34.913 78.412 34.9873 79.0394C35.1111 80.0879 34.5497 81.1033 33.5921 81.5491L26.7399 84.8018C25.2952 85.487 23.5698 85.0577 22.6121 83.7781C20.8289 81.4005 22.5213 78.0074 25.4851 77.9909Z" fill="#0B033B"/>
<path d="M59.2257 87.1946C64.8703 87.1946 69.4461 81.8944 69.4461 75.3561C69.4461 68.8179 64.8703 63.5176 59.2257 63.5176C53.5811 63.5176 49.0052 68.8179 49.0052 75.3561C49.0052 81.8944 53.5811 87.1946 59.2257 87.1946Z" fill="white"/>
<path d="M59.2258 81.4094C62.0161 81.4094 64.2782 78.7001 64.2782 75.358C64.2782 72.0159 62.0161 69.3066 59.2258 69.3066C56.4354 69.3066 54.1733 72.0159 54.1733 75.358C54.1733 78.7001 56.4354 81.4094 59.2258 81.4094Z" fill="#0B033B"/>
<path d="M130.364 66.9442L119.178 71.6912C118.319 72.0544 117.873 73.0038 118.146 73.8954C118.6 75.3814 119.946 76.4216 121.498 76.4794L132.643 76.8757C134.996 76.9583 137.076 75.3732 137.621 73.0864C138.636 68.8347 134.385 65.2353 130.364 66.9442Z" fill="#0B033B"/>
<path d="M128.119 77.8581L119.855 77.8086C119.219 77.8086 118.691 78.2792 118.616 78.9066C118.493 79.9551 119.054 80.9705 120.012 81.4163L126.864 84.669C128.309 85.3542 130.034 84.9249 130.992 83.6453C132.775 81.2677 131.082 77.8746 128.119 77.8581Z" fill="#0B033B"/>
<path d="M2.06386 93.0497C1.90701 92.9341 1.7419 92.802 1.56853 92.6534C1.39516 92.5048 1.23005 92.3232 1.07319 92.1168C0.908079 91.9104 0.759479 91.671 0.619133 91.3986C0.478788 91.1261 0.346698 90.8207 0.239375 90.4657C0.0660078 89.8795 -0.0165483 89.3264 0.00821852 88.7898C0.0329853 88.2532 0.156819 87.7661 0.387976 87.3203C0.619133 86.8745 0.957613 86.4782 1.41167 86.1315C1.86573 85.7848 2.4106 85.5123 3.0793 85.3142C3.68196 85.1326 4.24334 85.05 4.7717 85.0665C5.30006 85.083 5.78714 85.1986 6.22469 85.4133C6.66224 85.6279 7.04199 85.9499 7.36396 86.3709C7.68593 86.7919 7.94185 87.3203 8.13173 87.956C8.26382 88.4018 8.34638 88.8558 8.3794 89.3264C8.41242 89.797 8.3794 90.251 8.27208 90.6968L6.55491 90.6143C6.62096 90.3831 6.63747 90.1024 6.62096 89.7887C6.60445 89.475 6.55491 89.1778 6.47236 88.9054C6.28248 88.2614 5.93574 87.8239 5.44866 87.5927C4.95333 87.3616 4.37543 87.3451 3.71498 87.5432C2.98849 87.7578 2.50141 88.1211 2.24549 88.6329C1.98956 89.1365 1.95654 89.7144 2.15468 90.3584C2.262 90.7133 2.4106 91.0271 2.60873 91.3078C2.80687 91.5884 3.02151 91.8196 3.25267 92.0012L2.06386 93.0579V93.0497Z" fill="#F8D7F9"/>
<path d="M5.3413 93.0167C5.93571 92.7608 6.50534 92.6287 7.05021 92.6039C7.60334 92.5791 8.10693 92.6617 8.5775 92.8433C9.04807 93.0332 9.46911 93.3221 9.84886 93.7184C10.2286 94.1147 10.5423 94.61 10.7983 95.2044C11.0542 95.7988 11.1863 96.3602 11.2028 96.8968C11.2193 97.4334 11.1367 97.937 10.9469 98.3911C10.757 98.8534 10.4598 99.2662 10.0553 99.6294C9.65073 100.001 9.15539 100.306 8.56099 100.562C7.96659 100.818 7.4052 100.959 6.86033 100.992C6.32372 101.025 5.82013 100.95 5.35781 100.777C4.8955 100.595 4.47446 100.315 4.10296 99.9266C3.73146 99.5386 3.41775 99.0515 3.17008 98.4571C2.92241 97.8627 2.77381 97.2931 2.74904 96.7482C2.71602 96.2034 2.79858 95.6915 2.98846 95.2292C3.17834 94.7586 3.46728 94.3376 3.85529 93.9578C4.24331 93.5781 4.73864 93.2644 5.33305 93.0084L5.3413 93.0167ZM4.87899 97.7389C5.11015 98.2755 5.45688 98.6057 5.92745 98.7378C6.38976 98.8699 6.97591 98.7874 7.66938 98.4902C8.36285 98.193 8.83342 97.8297 9.07284 97.3922C9.31225 96.9546 9.3205 96.4675 9.0976 95.9309C8.86645 95.386 8.5032 95.0393 8.00786 94.8825C7.51253 94.7339 6.91812 94.7999 6.22465 95.0971C5.53118 95.3943 5.07712 95.7741 4.86248 96.2281C4.64783 96.6822 4.65609 97.1858 4.88725 97.7306L4.87899 97.7389Z" fill="#F8D7F9"/>
<path d="M12.9943 100.257L14.3069 102.469L11.2441 106.25L11.1285 106.366L11.2771 106.308L16.1149 105.499L17.4275 107.712L10.724 112.45L9.53515 110.461L13.663 107.703L13.8281 107.555L13.8116 107.53L13.5887 107.588L9.20493 108.397L8.41239 107.068L11.211 103.592L11.3762 103.435L11.3596 103.402L11.1533 103.476L6.74476 105.755L5.56421 103.765L12.9943 100.24V100.257Z" fill="#F8D7F9"/>
<path d="M17.5844 109.445C17.7742 109.495 17.9889 109.577 18.2201 109.693C18.4595 109.809 18.6989 109.949 18.9465 110.122C19.1942 110.296 19.4419 110.494 19.6978 110.725C19.9455 110.956 20.1766 111.204 20.3995 111.484C21.0517 112.327 21.3654 113.152 21.3324 113.961C21.2994 114.77 20.8866 115.48 20.1106 116.091C19.7061 116.405 19.2933 116.619 18.8888 116.727C18.4842 116.834 18.088 116.851 17.7082 116.776C17.3284 116.702 16.9652 116.553 16.6267 116.33C16.2882 116.108 15.991 115.819 15.7186 115.472C15.5287 115.232 15.3884 115.001 15.2976 114.787C15.2068 114.572 15.1407 114.366 15.1077 114.176L13.2006 115.662L11.855 113.936L17.5926 109.462L17.5844 109.445ZM17.1551 112.558C16.8331 112.805 16.6845 113.086 16.6928 113.391C16.6928 113.705 16.8001 113.978 16.9982 114.234C17.2129 114.514 17.477 114.671 17.7825 114.704C18.088 114.737 18.4264 114.622 18.7814 114.341C19.1117 114.085 19.3015 113.796 19.3593 113.474C19.4089 113.16 19.285 112.805 18.9878 112.417C18.7484 112.104 18.476 111.889 18.1788 111.757L17.1633 112.549L17.1551 112.558Z" fill="#F8D7F9"/>
<path d="M20.0033 117.684C20.4656 117.229 20.9444 116.891 21.448 116.668C21.9516 116.445 22.4552 116.338 22.9588 116.338C23.4624 116.338 23.966 116.462 24.4613 116.693C24.9567 116.924 25.4355 117.271 25.8895 117.725C26.3436 118.179 26.6738 118.658 26.8885 119.153C27.1031 119.648 27.2022 120.144 27.1939 120.639C27.1857 121.134 27.0536 121.63 26.8142 122.117C26.5747 122.604 26.228 123.074 25.7657 123.529C25.3034 123.983 24.8328 124.321 24.3457 124.552C23.8504 124.783 23.3633 124.899 22.8597 124.899C22.3644 124.899 21.8691 124.792 21.382 124.56C20.8949 124.338 20.4243 123.991 19.9785 123.537C19.5245 123.074 19.186 122.596 18.9631 122.1C18.7402 121.597 18.6246 121.101 18.6329 120.598C18.6329 120.094 18.7567 119.591 18.9796 119.095C19.2108 118.6 19.5492 118.129 20.0115 117.675L20.0033 117.684ZM21.2994 122.241C21.7122 122.653 22.158 122.843 22.6368 122.794C23.1157 122.744 23.6275 122.455 24.1641 121.927C24.7007 121.399 25.0062 120.887 25.0722 120.391C25.1383 119.896 24.9732 119.442 24.5604 119.029C24.1476 118.608 23.677 118.418 23.1652 118.451C22.6533 118.493 22.125 118.773 21.5801 119.302C21.0352 119.83 20.7546 120.35 20.7215 120.854C20.6885 121.357 20.8784 121.82 21.2912 122.241H21.2994Z" fill="#F8D7F9"/>
<path d="M28.8698 121.795C29.0514 121.811 29.2661 121.853 29.5137 121.927C29.7614 122.001 30.0173 122.092 30.298 122.216C30.5704 122.34 30.8511 122.488 31.1401 122.654C31.429 122.827 31.7015 123.017 31.9656 123.223C32.8242 123.908 33.3278 124.643 33.4847 125.419C33.6415 126.195 33.4434 126.93 32.8738 127.632C32.4527 128.16 31.9574 128.49 31.4125 128.639C30.8594 128.779 30.298 128.754 29.7119 128.565L30.2897 131.231L28.135 131.545L27.6149 126.831L25.9143 128.944L24.2136 127.574L28.8615 121.803L28.8698 121.795ZM29.233 124.833C28.9771 125.155 28.8698 125.469 28.9193 125.782C28.9688 126.096 29.1257 126.36 29.3981 126.575C29.6953 126.814 29.9925 126.905 30.298 126.847C30.6035 126.79 30.8759 126.616 31.1153 126.327C31.3547 126.03 31.4538 125.725 31.429 125.411C31.4043 125.097 31.2061 124.8 30.8594 124.511C30.7025 124.379 30.5292 124.28 30.3558 124.197C30.1824 124.115 30.0173 124.065 29.8687 124.04L29.2413 124.825L29.233 124.833Z" fill="#F8D7F9"/>
<path d="M35.8871 128.334L34.1121 127.17L35.0533 125.742L40.4359 129.267L39.4948 130.704L37.7198 129.54L34.1699 134.955L32.3372 133.758L35.8871 128.343V128.334Z" fill="#F8D7F9"/>
<path d="M41.1046 129.639L46.3222 132.388L45.5379 133.866L42.2604 132.14L41.5505 133.486L44.3821 134.98L43.5978 136.458L40.7662 134.964L39.9984 136.417L43.3419 138.183L42.5576 139.661L37.274 136.879L41.0881 129.639H41.1046Z" fill="#F8D7F9"/>
<path d="M47.6926 133.098L50.095 134.014L50.0372 138.885L50.0207 139.042L50.1032 138.91L53.3972 135.278L55.7996 136.194L53.4798 144.07L51.3168 143.244L52.8441 138.522L52.8854 138.307H52.8606L52.7203 138.481L49.7813 141.833L48.3365 141.279L48.3778 136.813L48.4108 136.59L48.3778 136.574L48.2622 136.764L46.2148 141.288L44.0519 140.462L47.7009 133.09L47.6926 133.098Z" fill="#F8D7F9"/>
<path d="M57.2361 136.557L62.9572 137.985L62.5527 139.611L58.9532 138.711L58.5817 140.181L61.6941 140.957L61.2896 142.583L58.1772 141.807L57.7727 143.409L61.4464 144.325L61.0419 145.952L55.2465 144.499L57.2361 136.557Z" fill="#F8D7F9"/>
<path d="M63.8818 138.207L66.2924 138.554L68.2738 143.928L68.9837 138.934L71.1467 139.239L69.9909 147.346L67.5225 146.991L65.5824 141.815L64.8972 146.619L62.7343 146.314L63.89 138.207H63.8818Z" fill="#F8D7F9"/>
<path d="M73.9537 141.072L71.832 140.998L71.8981 139.289L78.3292 139.528L78.2631 141.237L76.1415 141.163L75.902 147.635L73.7143 147.553L73.9537 141.081V141.072Z" fill="#F8D7F9"/>
<path d="M80.8389 139.38L83.4476 139.223L86.5435 147.255L84.1906 147.396L83.6045 145.802L81.2929 145.943L80.8966 147.594L78.4943 147.734L80.8389 139.38ZM83.1422 144.027L82.3249 141.716H82.2753L81.6809 144.11L83.1422 144.019V144.027Z" fill="#F8D7F9"/>
<path d="M86.9149 138.91L89.0779 138.555L90.1098 144.854L93.1974 144.35L93.4864 146.133L88.2358 146.992L86.9149 138.91Z" fill="#F8D7F9"/>
<path d="M92.9911 137.837L95.121 137.342L96.9703 145.317L94.8403 145.812L92.9911 137.837Z" fill="#F8D7F9"/>
<path d="M98.4315 142.386C98.5883 142.443 98.7617 142.493 98.9681 142.518C99.1745 142.551 99.3891 142.567 99.6203 142.567C99.8432 142.567 100.074 142.551 100.306 142.526C100.537 142.493 100.76 142.443 100.958 142.386C101.354 142.262 101.602 142.121 101.709 141.948C101.816 141.775 101.849 141.61 101.8 141.453C101.75 141.296 101.651 141.172 101.503 141.114C101.354 141.056 101.131 141.015 100.842 140.999L99.6946 140.941C99.3396 140.924 99.0094 140.891 98.7039 140.833C98.3985 140.776 98.126 140.685 97.8866 140.561C97.6472 140.437 97.4408 140.272 97.2674 140.074C97.0941 139.876 96.962 139.628 96.8712 139.331C96.6565 138.638 96.7556 138.002 97.1766 137.44C97.5977 136.879 98.3076 136.433 99.3231 136.12C99.9753 135.913 100.57 135.822 101.098 135.831C101.626 135.839 102.08 135.93 102.468 136.103L102.287 137.738C102.13 137.705 101.957 137.68 101.758 137.672C101.56 137.663 101.354 137.672 101.139 137.68C100.933 137.696 100.718 137.721 100.504 137.754C100.289 137.787 100.091 137.837 99.9092 137.886C99.5625 137.994 99.3313 138.117 99.2158 138.249C99.1002 138.382 99.0589 138.53 99.1084 138.671C99.1497 138.794 99.2405 138.885 99.3891 138.951C99.5377 139.017 99.7606 139.059 100.058 139.075L101.057 139.125C101.511 139.141 101.907 139.191 102.246 139.257C102.584 139.323 102.865 139.422 103.104 139.546C103.344 139.669 103.533 139.826 103.682 140.016C103.831 140.206 103.946 140.429 104.029 140.701C104.136 141.056 104.169 141.403 104.128 141.75C104.087 142.097 103.971 142.419 103.781 142.716C103.591 143.013 103.319 143.285 102.972 143.525C102.625 143.764 102.196 143.971 101.692 144.127C101.057 144.326 100.438 144.416 99.8184 144.408C99.1993 144.4 98.6709 144.301 98.2416 144.127L98.448 142.402L98.4315 142.386Z" fill="#F8D7F9"/>
<path d="M105.531 135.757L103.575 136.582L102.914 135.005L108.842 132.504L109.502 134.081L107.546 134.906L110.055 140.875L108.041 141.725L105.531 135.757Z" fill="#F8D7F9"/>
<path d="M109.494 132.181L114.695 129.398L115.488 130.876L112.218 132.626L112.937 133.964L115.76 132.453L116.553 133.931L113.729 135.442L114.505 136.895L117.84 135.111L118.633 136.589L113.366 139.404L109.502 132.189L109.494 132.181Z" fill="#F8D7F9"/>
<path d="M118.146 127.228L122.81 123.859L123.784 125.205L120.895 127.294L122.076 128.928L124.651 127.063L125.625 128.408L123.05 130.274L124.717 132.577L122.942 133.857L118.146 127.219V127.228Z" fill="#F8D7F9"/>
<path d="M124.503 121.853L123.074 121.391L124.123 117.898L125.857 118.485L124.503 121.845V121.853ZM123.537 123.289L127.97 119.401L129.076 120.656L126.286 123.099L127.285 124.239L129.695 122.125L130.802 123.38L128.391 125.494L129.481 126.732L132.329 124.239L133.427 125.494L128.936 129.432L123.537 123.273V123.289Z" fill="#F8D7F9"/>
<path d="M128.655 118.708L130.166 117.123L134.789 121.523L136.944 119.261L138.248 120.508L134.583 124.355L128.655 118.708Z" fill="#F8D7F9"/>
<path d="M132.857 114.176L134.261 112.5L140.543 117.751L139.14 119.426L132.857 114.176Z" fill="#F8D7F9"/>
<path d="M134.979 111.724L136.383 109.735L142.071 110.428L137.951 107.514L139.214 105.723L145.901 110.445L144.457 112.484L138.967 111.848L142.929 114.647L141.666 116.43L134.979 111.708V111.724Z" fill="#F8D7F9"/>
<path d="M150.747 102.04C150.326 102.577 149.674 103.51 149.236 104.03C148.064 105.433 147.197 108.249 146.43 107.753C145.224 106.276 144.547 105.772 143.606 104.038C143.268 103.411 142.822 102.841 142.343 102.321C140.362 100.166 141.856 97.6484 143.928 97.6484C144.655 97.6484 145.307 97.9539 145.769 98.4492C146.132 98.8372 146.719 98.8372 147.082 98.4492C147.544 97.9539 148.196 97.6484 148.923 97.6484C150.912 97.6484 152.365 99.9518 150.747 102.04Z" fill="#F8D7F9"/>
<path d="M141.163 97.6979C142.375 97.6979 143.359 96.6038 143.359 95.2542C143.359 93.9046 142.375 92.8105 141.163 92.8105C139.95 92.8105 138.967 93.9046 138.967 95.2542C138.967 96.6038 139.95 97.6979 141.163 97.6979Z" fill="#F8D7F9"/>
<path d="M146.479 95.8483C147.692 95.8483 148.675 94.7542 148.675 93.4046C148.675 92.055 147.692 90.9609 146.479 90.9609C145.266 90.9609 144.283 92.055 144.283 93.4046C144.283 94.7542 145.266 95.8483 146.479 95.8483Z" fill="#F8D7F9"/>
<path d="M152.324 97.6979C153.537 97.6979 154.52 96.6038 154.52 95.2542C154.52 93.9046 153.537 92.8105 152.324 92.8105C151.111 92.8105 150.128 93.9046 150.128 95.2542C150.128 96.6038 151.111 97.6979 152.324 97.6979Z" fill="#F8D7F9"/>
</g>
<defs>
<clipPath id="clip0_442_395">
<rect width="154.52" height="147.734" fill="white"/>
</clipPath>
</defs>
</svg>
