<svg width="183" height="175" viewBox="0 0 183 175" fill="none" xmlns="http://www.w3.org/2000/svg">
<g clip-path="url(#clip0_227_3506)">
<path d="M90.9068 156.27C134.06 156.27 169.042 121.288 169.042 78.135C169.042 34.9823 134.06 0 90.9068 0C47.754 0 12.7717 34.9823 12.7717 78.135C12.7717 121.288 47.754 156.27 90.9068 156.27Z" fill="#F8D7F9"/>
<path d="M46.3866 29.9901L48.1748 28.7589L51.6829 32.2474L51.8393 32.4331L51.8979 32.394L51.7806 32.179L50.2074 27.4983L51.5559 26.57L55.3571 29.7165L55.533 29.8924L55.5721 29.8631L55.4548 29.6481L53.4223 25.1434L55.2105 23.9121L57.9857 31.0553L56.002 32.4135L52.6992 29.6384L52.5233 29.4429L52.6503 29.6677L54.0281 33.7718L52.0445 35.1301L46.3671 29.9804L46.3866 29.9901Z" fill="#0B033B"/>
<path d="M56.8033 23.2085L61.6111 20.8047L62.2951 22.1727L59.2756 23.6776L59.8912 24.9186L62.5003 23.6092L63.1843 24.9772L60.5752 26.2866L61.2495 27.6254L64.3374 26.0814L65.0214 27.4397L60.1551 29.8729L56.8229 23.1988L56.8033 23.2085Z" fill="#0B033B"/>
<path d="M63.1746 20.0913L65.2559 19.3291L69.1647 22.7883L67.5816 18.4692L69.4578 17.7852L72.0278 24.7817L69.8975 25.5635L66.1061 22.2509L67.6305 26.4039L65.7641 27.0879L63.1843 20.0913H63.1746Z" fill="#0B033B"/>
<path d="M71.3143 17.6478C71.6368 17.4133 72.0179 17.1983 72.4674 17.0224C72.9169 16.8367 73.3566 16.6999 73.7964 16.5924C75.1058 16.2797 76.1709 16.3677 76.9917 16.8367C77.8126 17.3058 78.3598 18.1461 78.6432 19.3481C78.7897 19.9832 78.8288 20.5598 78.7506 21.0581C78.6725 21.5565 78.4966 21.9962 78.223 22.3675C77.9494 22.7389 77.5976 23.0516 77.1579 23.2959C76.7181 23.5401 76.2198 23.7356 75.653 23.8626L72.9169 24.5076L71.3046 17.6478H71.3143ZM75.2133 22.4066C75.7898 22.2698 76.21 21.9864 76.4543 21.5663C76.6986 21.1461 76.7377 20.5695 76.5715 19.8366C76.4054 19.1331 76.122 18.6445 75.7214 18.3709C75.3208 18.0875 74.8126 18.0289 74.2068 18.1657C74.0993 18.195 73.9918 18.2243 73.8843 18.2634C73.7768 18.3025 73.6693 18.3513 73.5716 18.4002L74.5488 22.563L75.223 22.4066H75.2133Z" fill="#0B033B"/>
<path d="M81.995 19.8372L78.5553 15.5474L80.8712 15.2836L82.7474 17.8536H82.8158L83.9493 14.9318L86.2457 14.668L84.2034 19.5245L84.5356 22.3779L82.3077 22.632L81.9852 19.847L81.995 19.8372Z" fill="#0B033B"/>
<path d="M91.024 14.5605L93.0175 14.6583L92.8709 17.6191L95.177 17.7364L95.3236 14.7755L97.3171 14.8732L96.9457 22.3193L94.9523 22.2216L95.0989 19.3194L92.7927 19.2021L92.6462 22.1044L90.6527 22.0066L91.024 14.5605Z" fill="#0B033B"/>
<path d="M99.0955 15.0879L104.402 15.9283L104.157 17.4331L100.825 16.9054L100.61 18.2735L103.493 18.7328L103.248 20.2376L100.366 19.7783L100.131 21.2637L103.532 21.8011L103.288 23.306L97.9131 22.446L99.0857 15.0781L99.0955 15.0879Z" fill="#0B033B"/>
<path d="M106.092 16.2617L108.232 16.848L109.395 21.9391L110.616 17.5027L112.541 18.0304L110.558 25.2224L108.359 24.6166L107.206 19.7112L106.033 23.9716L104.108 23.444L106.092 16.252V16.2617Z" fill="#0B033B"/>
<path d="M116.245 19.4375L118.444 20.3365L117.808 28.1539L115.825 27.3429L115.971 25.8087L114.017 25.0074L113.04 26.2093L111.007 25.3787L116.225 19.4473L116.245 19.4375ZM116.294 24.1573L116.528 21.9391L116.489 21.9195L115.053 23.6491L116.294 24.1573Z" fill="#0B033B"/>
<path d="M121.717 21.8008L123.466 22.7584L121.209 26.8528C121.014 27.2046 120.965 27.5075 121.043 27.7811C121.121 28.0547 121.317 28.2697 121.629 28.4456C122.264 28.7974 122.773 28.6215 123.163 27.9277L125.421 23.8235L127.17 24.7812L124.893 28.9146C124.453 29.7159 123.896 30.2045 123.212 30.3804C122.528 30.5563 121.737 30.3804 120.818 29.882C119.9 29.3837 119.333 28.7876 119.118 28.1231C118.903 27.4586 119.01 26.716 119.45 25.9147L121.727 21.7812L121.717 21.8008Z" fill="#0B033B"/>
<path d="M128.626 25.75L130.267 26.8835L126.965 31.6717L129.31 33.2938L128.372 34.6423L124.385 31.8867L128.626 25.75Z" fill="#0B033B"/>
<path d="M132.994 30.8101L131.489 29.5984L132.466 28.3867L137.03 32.0707L136.052 33.2824L134.547 32.0707L130.844 36.6634L129.29 35.4126L132.994 30.8199V30.8101Z" fill="#0B033B"/>
<path d="M2.44291 110.137C2.25725 110 2.06181 109.844 1.85661 109.668C1.6514 109.492 1.45596 109.277 1.2703 109.033C1.07487 108.789 0.898974 108.505 0.732854 108.183C0.566734 107.86 0.410385 107.499 0.283352 107.079C0.0781453 106.385 -0.0195724 105.73 0.0097429 105.095C0.0390582 104.46 0.185635 103.883 0.459244 103.356C0.732854 102.828 1.1335 102.359 1.67094 101.949C2.20839 101.538 2.85333 101.216 3.64484 100.981C4.35818 100.766 5.02266 100.668 5.64805 100.688C6.27345 100.708 6.84998 100.844 7.36788 101.098C7.88579 101.352 8.33529 101.734 8.71639 102.232C9.09749 102.73 9.40041 103.356 9.62516 104.108C9.78151 104.636 9.87923 105.173 9.91831 105.73C9.9574 106.287 9.91831 106.825 9.79128 107.352L7.75875 107.255C7.83693 106.981 7.85647 106.649 7.83693 106.277C7.81739 105.906 7.75875 105.554 7.66104 105.232C7.43629 104.47 7.02587 103.952 6.44934 103.678C5.86303 103.405 5.17901 103.385 4.39727 103.62C3.53735 103.874 2.96082 104.304 2.65789 104.909C2.35497 105.505 2.31588 106.189 2.5504 106.952C2.67744 107.372 2.85333 107.743 3.08785 108.075C3.32237 108.408 3.57644 108.681 3.85005 108.896L2.44291 110.147V110.137Z" fill="#0B033B"/>
<path d="M6.32234 110.099C7.02591 109.796 7.70016 109.64 8.3451 109.611C8.99981 109.581 9.59589 109.679 10.1529 109.894C10.7099 110.119 11.2082 110.461 11.6577 110.93C12.1072 111.399 12.4786 111.985 12.7815 112.689C13.0844 113.392 13.2408 114.057 13.2603 114.692C13.2798 115.327 13.1821 115.923 12.9574 116.461C12.7326 117.008 12.3808 117.496 11.902 117.926C11.4232 118.366 10.8369 118.728 10.1333 119.031C9.42977 119.333 8.76529 119.5 8.12035 119.539C7.48519 119.578 6.88911 119.49 6.34189 119.285C5.79467 119.07 5.29631 118.737 4.85658 118.278C4.41685 117.819 4.04552 117.242 3.75237 116.539C3.45922 115.835 3.28333 115.161 3.25401 114.516C3.21492 113.871 3.31264 113.265 3.53739 112.718C3.76214 112.161 4.10415 111.663 4.56343 111.213C5.0227 110.764 5.60901 110.392 6.31257 110.089L6.32234 110.099ZM5.77513 115.689C6.04874 116.324 6.45915 116.715 7.01614 116.871C7.56336 117.027 8.25715 116.93 9.07798 116.578C9.89881 116.226 10.4558 115.796 10.7392 115.278C11.0226 114.76 11.0323 114.184 10.7685 113.549C10.4949 112.904 10.0649 112.493 9.47863 112.308C8.89232 112.132 8.18875 112.21 7.36792 112.562C6.5471 112.913 6.00965 113.363 5.75558 113.9C5.50152 114.438 5.51129 115.034 5.7849 115.679L5.77513 115.689Z" fill="#0B033B"/>
<path d="M15.3808 118.668L16.9345 121.287L13.3092 125.762L13.1724 125.899L13.3482 125.831L19.0745 124.873L20.6282 127.492L12.6935 133.101L11.2864 130.746L16.1723 127.482L16.3677 127.306L16.3482 127.277L16.0843 127.345L10.8955 128.303L9.95744 126.73L13.2701 122.616L13.4655 122.43L13.446 122.391L13.2017 122.479L7.98354 125.176L6.58618 122.821L15.3808 118.648V118.668Z" fill="#0B033B"/>
<path d="M20.8138 129.545C21.0386 129.604 21.2926 129.701 21.5663 129.838C21.8496 129.975 22.133 130.141 22.4262 130.346C22.7193 130.551 23.0125 130.786 23.3154 131.06C23.6086 131.333 23.8822 131.626 24.146 131.959C24.918 132.955 25.2893 133.932 25.2502 134.89C25.2111 135.848 24.7225 136.688 23.804 137.411C23.3252 137.783 22.8366 138.037 22.3578 138.164C21.879 138.291 21.4099 138.31 20.9604 138.222C20.5109 138.134 20.081 137.958 19.6803 137.695C19.2797 137.431 18.9279 137.089 18.6054 136.678C18.3807 136.395 18.2145 136.121 18.1071 135.867C17.9996 135.613 17.9214 135.369 17.8823 135.144L15.625 136.903L14.0322 134.861L20.8236 129.564L20.8138 129.545ZM20.3057 133.229C19.9246 133.522 19.7487 133.854 19.7585 134.216C19.7585 134.587 19.8855 134.91 20.12 135.213C20.3741 135.545 20.6868 135.73 21.0484 135.77C21.4099 135.809 21.8106 135.672 22.2307 135.34C22.6216 135.037 22.8464 134.695 22.9148 134.314C22.9734 133.942 22.8268 133.522 22.475 133.063C22.1917 132.691 21.8692 132.437 21.5174 132.281L20.3155 133.219L20.3057 133.229Z" fill="#0B033B"/>
<path d="M23.6769 139.296C24.2241 138.758 24.7909 138.358 25.387 138.094C25.9831 137.83 26.5791 137.703 27.1752 137.703C27.7713 137.703 28.3674 137.85 28.9537 138.123C29.54 138.397 30.1067 138.807 30.6442 139.345C31.1816 139.882 31.5725 140.449 31.8266 141.035C32.0806 141.622 32.1979 142.208 32.1881 142.794C32.1784 143.381 32.022 143.967 31.7386 144.543C31.4552 145.12 31.0448 145.677 30.4976 146.214C29.9504 146.752 29.3934 147.152 28.8169 147.426C28.2306 147.7 27.654 147.836 27.058 147.836C26.4716 147.836 25.8853 147.709 25.3088 147.436C24.7323 147.172 24.1753 146.762 23.6476 146.224C23.1102 145.677 22.7095 145.11 22.4457 144.524C22.1818 143.928 22.045 143.341 22.0548 142.745C22.0548 142.149 22.2014 141.553 22.4652 140.967C22.7388 140.381 23.1395 139.824 23.6867 139.286L23.6769 139.296ZM25.2111 144.69C25.6997 145.179 26.2274 145.403 26.7941 145.345C27.3609 145.286 27.9667 144.944 28.6019 144.319C29.2371 143.693 29.5986 143.087 29.6768 142.501C29.755 141.915 29.5595 141.377 29.0709 140.889C28.5824 140.39 28.0254 140.166 27.4195 140.205C26.8137 140.254 26.1883 140.586 25.5433 141.211C24.8984 141.837 24.5662 142.452 24.5271 143.048C24.488 143.644 24.7127 144.192 25.2013 144.69H25.2111Z" fill="#0B033B"/>
<path d="M34.1718 144.162C34.3868 144.182 34.6408 144.231 34.934 144.318C35.2271 144.406 35.5301 144.514 35.8623 144.66C36.1848 144.807 36.517 144.983 36.859 145.178C37.201 145.384 37.5235 145.608 37.8362 145.853C38.8525 146.664 39.4486 147.533 39.6342 148.452C39.8199 149.37 39.5854 150.24 38.9111 151.071C38.4127 151.696 37.8264 152.087 37.1815 152.263C36.5268 152.429 35.8623 152.4 35.1685 152.175L35.8525 155.331L33.3021 155.703L32.6865 150.123L30.6735 152.624L28.6605 151.002L34.162 144.172L34.1718 144.162ZM34.6018 147.758C34.2988 148.139 34.1718 148.511 34.2304 148.882C34.2891 149.253 34.4747 149.566 34.7972 149.82C35.149 150.103 35.5008 150.211 35.8623 150.142C36.2239 150.074 36.5463 149.869 36.8297 149.527C37.1131 149.175 37.2304 148.813 37.201 148.442C37.1717 148.071 36.9372 147.719 36.5268 147.377C36.3411 147.221 36.1359 147.103 35.9307 147.006C35.7255 146.908 35.5301 146.849 35.3542 146.82L34.6115 147.748L34.6018 147.758Z" fill="#0B033B"/>
<path d="M42.4779 151.902L40.3769 150.524L41.4909 148.834L47.8621 153.007L46.7481 154.707L44.6472 153.329L40.4453 159.739L38.276 158.322L42.4779 151.912V151.902Z" fill="#0B033B"/>
<path d="M48.6536 153.445L54.8294 156.699L53.901 158.448L50.0217 156.406L49.1813 157.999L52.533 159.768L51.6047 161.517L48.253 159.748L47.3442 161.468L51.3018 163.559L50.3734 165.308L44.1195 162.015L48.6341 153.445H48.6536Z" fill="#0B033B"/>
<path d="M56.4514 157.541L59.295 158.626L59.2266 164.391L59.2071 164.577L59.3048 164.42L63.2037 160.121L66.0473 161.205L63.3014 170.528L60.7412 169.551L62.549 163.961L62.5979 163.707H62.5686L62.4024 163.912L58.9237 167.88L57.2136 167.225L57.2625 161.938L57.3016 161.674L57.2625 161.655L57.1257 161.88L54.7023 167.235L52.1421 166.257L56.4612 157.531L56.4514 157.541Z" fill="#0B033B"/>
<path d="M67.7476 161.635L74.5194 163.325L74.0406 165.25L69.7801 164.185L69.3404 165.925L73.0243 166.843L72.5455 168.768L68.8616 167.85L68.3827 169.745L72.7312 170.83L72.2524 172.755L65.3926 171.035L67.7476 161.635Z" fill="#0B033B"/>
<path d="M75.6139 163.588L78.4673 163.998L80.8125 170.36L81.6528 164.448L84.213 164.809L82.845 174.405L79.9232 173.985L77.6269 167.858L76.8158 173.545L74.2556 173.184L75.6237 163.588H75.6139Z" fill="#0B033B"/>
<path d="M87.5355 166.98L85.0242 166.892L85.1023 164.869L92.7145 165.153L92.6364 167.175L90.125 167.087L89.8417 174.748L87.2521 174.651L87.5355 166.99V166.98Z" fill="#0B033B"/>
<path d="M95.6851 164.977L98.773 164.791L102.437 174.299L99.6524 174.465L98.9586 172.579L96.2225 172.745L95.7535 174.7L92.9099 174.866L95.6851 164.977ZM98.4114 170.478L97.444 167.742H97.3854L96.6818 170.576L98.4114 170.468V170.478Z" fill="#0B033B"/>
<path d="M102.877 164.42L105.437 164L106.659 171.456L110.313 170.86L110.655 172.97L104.441 173.987L102.877 164.42Z" fill="#0B033B"/>
<path d="M110.069 163.149L112.59 162.562L114.779 172.002L112.258 172.588L110.069 163.149Z" fill="#0B033B"/>
<path d="M116.509 168.533C116.694 168.601 116.9 168.66 117.144 168.689C117.388 168.728 117.642 168.748 117.916 168.748C118.18 168.748 118.453 168.728 118.727 168.699C119.001 168.66 119.264 168.601 119.499 168.533C119.968 168.386 120.261 168.22 120.388 168.015C120.515 167.81 120.554 167.614 120.496 167.429C120.437 167.243 120.32 167.096 120.144 167.028C119.968 166.96 119.704 166.911 119.362 166.891L118.004 166.823C117.584 166.803 117.193 166.764 116.831 166.696C116.47 166.627 116.147 166.52 115.864 166.373C115.58 166.227 115.336 166.031 115.131 165.797C114.926 165.562 114.769 165.269 114.662 164.917C114.408 164.096 114.525 163.344 115.023 162.68C115.522 162.015 116.362 161.487 117.564 161.116C118.336 160.872 119.04 160.764 119.665 160.774C120.29 160.784 120.828 160.891 121.287 161.097L121.072 163.031C120.886 162.992 120.681 162.963 120.447 162.953C120.212 162.943 119.968 162.953 119.714 162.963C119.47 162.982 119.215 163.012 118.961 163.051C118.707 163.09 118.473 163.149 118.258 163.207C117.847 163.334 117.574 163.481 117.437 163.637C117.3 163.794 117.251 163.969 117.31 164.136C117.359 164.282 117.466 164.39 117.642 164.468C117.818 164.546 118.082 164.595 118.434 164.614L119.616 164.673C120.154 164.693 120.623 164.751 121.023 164.829C121.424 164.907 121.756 165.025 122.04 165.171C122.323 165.318 122.548 165.504 122.724 165.728C122.899 165.953 123.036 166.217 123.134 166.539C123.261 166.96 123.3 167.37 123.251 167.78C123.202 168.191 123.066 168.572 122.841 168.924C122.616 169.275 122.294 169.598 121.883 169.881C121.473 170.165 120.965 170.409 120.369 170.595C119.616 170.829 118.883 170.937 118.15 170.927C117.417 170.917 116.792 170.8 116.284 170.595L116.528 168.552L116.509 168.533Z" fill="#0B033B"/>
<path d="M124.912 160.686L122.597 161.663L121.815 159.797L128.831 156.836L129.613 158.702L127.297 159.68L130.267 166.745L127.883 167.751L124.912 160.686Z" fill="#0B033B"/>
<path d="M129.603 156.455L135.759 153.162L136.697 154.911L132.828 156.983L133.678 158.566L137.02 156.778L137.958 158.527L134.616 160.315L135.534 162.035L139.482 159.924L140.42 161.673L134.186 165.005L129.613 156.465L129.603 156.455Z" fill="#0B033B"/>
<path d="M139.844 150.592L145.365 146.605L146.518 148.198L143.098 150.671L144.495 152.605L147.544 150.397L148.697 151.99L145.648 154.198L147.622 156.924L145.521 158.439L139.844 150.583V150.592Z" fill="#F8D7F9"/>
<path d="M147.368 144.231L145.677 143.684L146.919 139.551L148.971 140.245L147.368 144.222V144.231ZM146.225 145.932L151.472 141.329L152.782 142.815L149.479 145.707L150.661 147.056L153.514 144.554L154.824 146.039L151.971 148.541L153.26 150.007L156.632 147.056L157.931 148.541L152.615 153.202L146.225 145.912V145.932Z" fill="#F8D7F9"/>
<path d="M152.283 140.507L154.071 138.631L159.544 143.839L162.094 141.162L163.638 142.637L159.299 147.191L152.283 140.507Z" fill="#F8D7F9"/>
<path d="M157.257 135.144L158.918 133.16L166.355 139.375L164.693 141.359L157.257 135.144Z" fill="#F8D7F9"/>
<path d="M159.768 132.241L161.43 129.886L168.162 130.707L163.286 127.257L164.781 125.137L172.696 130.726L170.986 133.14L164.488 132.387L169.179 135.7L167.683 137.811L159.768 132.221V132.241Z" fill="#F8D7F9"/>
<path d="M178.432 120.779C177.934 121.414 177.162 122.518 176.644 123.134C175.257 124.795 174.231 128.127 173.322 127.541C171.895 125.792 171.094 125.195 169.98 123.143C169.579 122.401 169.052 121.727 168.485 121.111C166.14 118.56 167.908 115.58 170.361 115.58C171.221 115.58 171.993 115.942 172.54 116.528C172.97 116.987 173.664 116.987 174.094 116.528C174.641 115.942 175.413 115.58 176.273 115.58C178.628 115.58 180.348 118.306 178.432 120.779Z" fill="#0B033B"/>
<path d="M167.087 115.638C168.523 115.638 169.687 114.343 169.687 112.746C169.687 111.149 168.523 109.854 167.087 109.854C165.652 109.854 164.488 111.149 164.488 112.746C164.488 114.343 165.652 115.638 167.087 115.638Z" fill="#0B033B"/>
<path d="M173.38 113.449C174.816 113.449 175.98 112.154 175.98 110.557C175.98 108.959 174.816 107.664 173.38 107.664C171.945 107.664 170.781 108.959 170.781 110.557C170.781 112.154 171.945 113.449 173.38 113.449Z" fill="#0B033B"/>
<path d="M180.299 115.638C181.734 115.638 182.898 114.343 182.898 112.746C182.898 111.149 181.734 109.854 180.299 109.854C178.863 109.854 177.7 111.149 177.7 112.746C177.7 114.343 178.863 115.638 180.299 115.638Z" fill="#0B033B"/>
</g>
<defs>
<clipPath id="clip0_227_3506">
<rect width="182.898" height="174.866" fill="white"/>
</clipPath>
</defs>
</svg>
