<svg width="171" height="177" viewBox="0 0 171 177" fill="none" xmlns="http://www.w3.org/2000/svg">
<g clip-path="url(#clip0_60_2948)">
<path d="M113.109 150.97L111.039 144.311C112.408 142.943 114.299 142.094 116.38 142.094C120.53 142.094 123.89 145.424 123.89 149.537C123.89 153.65 120.53 156.979 116.38 156.979C112.82 156.979 109.827 154.51 109.07 151.191L112.197 151.93C112.775 152.062 113.276 151.533 113.109 150.97Z" fill="#94D1CE"/>
<path d="M81.0877 103.492C81.3102 101.331 81.4993 97.6921 81.7997 95.5311C82.5897 89.7535 80.1419 80.646 83.0904 80.6791C88.9316 82.6307 91.613 82.8292 97.165 85.9385C99.1677 87.0631 101.348 87.846 103.563 88.4414C112.686 90.9112 112.908 100.25 107.234 103.778C105.254 105.013 102.939 105.289 100.837 104.738C99.1788 104.308 97.5655 105.311 97.2428 106.976C96.8312 109.082 95.5739 111.034 93.5935 112.268C88.1528 115.653 80.2309 111.883 81.0765 103.47L81.0877 103.492Z" fill="#94D1CE"/>
<path d="M82.2115 59.9173C82.0224 58.4067 81.5773 55.8928 81.4438 54.3822C81.0767 50.3137 77.9725 44.4809 79.9863 44.0509C84.281 44.4809 86.1502 44.2053 90.4226 45.4733C91.9692 45.9253 93.5713 46.1238 95.1846 46.19C101.794 46.4656 103.429 52.8055 100.102 56.0913C98.9453 57.238 97.4099 57.7893 95.8856 57.7341C94.684 57.69 93.7494 58.6272 93.7827 59.818C93.8384 61.3176 93.2821 62.8391 92.1249 63.9969C88.9429 67.1503 82.9459 65.8051 82.2004 59.9283L82.2115 59.9173Z" fill="#94D1CE"/>
<path d="M61.7059 74.2512C61.8617 72.7406 61.9952 70.1936 62.2066 68.6831C62.7629 64.6366 61.0495 58.2636 63.1078 58.2856C67.1911 59.6528 69.0825 59.7962 72.9656 61.9683C74.3675 62.7511 75.8918 63.3024 77.4494 63.7214C83.8358 65.4525 83.9916 71.9909 80.0196 74.4607C78.6288 75.3207 77.0155 75.5192 75.5357 75.1333C74.3786 74.8245 73.2437 75.5302 73.0212 76.699C72.7319 78.1764 71.853 79.5437 70.4622 80.4037C66.657 82.7743 61.1051 80.1391 61.7059 74.2512Z" fill="#94D1CE"/>
<path d="M40.021 84.9574C40.5439 83.524 41.3005 81.0873 41.8679 79.676C43.4033 75.883 43.3032 69.2895 45.2948 69.8077C48.9219 72.1232 50.7132 72.7076 53.9509 75.7618C55.1192 76.8643 56.4655 77.7574 57.8673 78.5403C63.6307 81.7488 62.1843 88.1329 57.7227 89.5773C56.165 90.0845 54.5406 89.875 53.2166 89.1473C52.1708 88.5739 50.9024 88.9819 50.3906 90.0624C49.7452 91.4296 48.5547 92.5322 46.9971 93.0394C42.7246 94.4177 37.996 90.5255 40.0099 84.9574L40.021 84.9574Z" fill="#94D1CE"/>
<path d="M49.7676 49.2222C49.6341 48.1748 49.3337 46.4437 49.2336 45.3962C48.9777 42.5846 46.8303 38.5491 48.2211 38.2514C51.1918 38.5491 52.4824 38.3617 55.4309 39.2327C56.499 39.5525 57.6116 39.6848 58.7242 39.7289C63.2971 39.9163 64.4208 44.3047 62.1288 46.576C61.3277 47.3699 60.2707 47.7447 59.2138 47.7117C58.3793 47.6786 57.734 48.3291 57.7674 49.1561C57.8007 50.1925 57.4224 51.251 56.6214 52.0449C54.4295 54.217 50.2794 53.2908 49.7565 49.2332L49.7676 49.2222Z" fill="#94D1CE"/>
<path d="M35.593 59.1352C35.6931 58.0877 35.7932 56.3236 35.9379 55.2871C36.3162 52.4865 35.1368 48.0872 36.5609 48.0982C39.387 49.0464 40.6887 49.1347 43.3701 50.6452C44.3381 51.1855 45.3951 51.5714 46.4743 51.8581C50.8914 53.0489 51.0027 57.5695 48.2545 59.2785C47.2977 59.8739 46.1739 60.0062 45.1614 59.7416C44.3604 59.5321 43.5815 60.0173 43.4258 60.8222C43.2255 61.8476 42.6136 62.7848 41.6567 63.3802C39.0309 65.023 35.1924 63.1927 35.6041 59.1242L35.593 59.1352Z" fill="#94D1CE"/>
<path d="M58.0231 139.117C58.3791 139.657 58.724 140.219 59.0801 140.826L58.7908 140.991C58.5238 140.374 58.2679 139.745 58.0231 139.117Z" fill="#94D1CE"/>
<path d="M11.2044 21.4481L31.6431 41.0963C33.2119 42.6069 35.6708 42.6951 37.3508 41.3168C40.1546 39.0124 41.1671 35.1864 39.8654 31.8125L30.5639 7.59947C28.6057 2.49446 23.2874 -0.526651 17.8467 0.366449C7.74413 2.03137 3.84997 14.3804 11.2044 21.4481Z" fill="#94D1CE"/>
<path d="M36.8167 16.3978L44.2378 34.1165C44.8053 35.4727 46.3184 36.1894 47.7426 35.7814C50.1236 35.0868 51.7925 32.9809 51.8926 30.5221L52.6603 12.9246C52.8272 9.21992 50.3239 5.91214 46.6967 5.01904C39.9431 3.35412 34.1464 10.0248 36.8167 16.3978Z" fill="#94D1CE"/>
<path d="M15.2542 28.6926L29.1507 42.045C30.2188 43.0704 30.3301 44.7243 29.4178 45.882C27.8935 47.8226 25.3011 48.5834 22.9535 47.7785L6.1641 42.0119C2.62598 40.7991 0.445247 37.2818 0.945926 33.5991C1.88052 26.763 10.2585 23.8852 15.2653 28.6926L15.2542 28.6926Z" fill="#94D1CE"/>
<path d="M30.4973 138.974C31.2428 142.359 33.4124 145.435 35.7489 147.927C35.0146 148.732 34.3247 149.492 33.7462 150.099C27.0148 157.211 31.7768 166.064 39.2648 166.682C42.0018 166.902 44.5608 165.976 46.43 164.333C47.9098 163.021 50.135 163.209 51.3811 164.73C52.9611 166.671 55.3309 167.994 58.068 168.215C62.8522 168.6 67.0913 165.502 68.1038 161.103C68.1594 160.882 68.2039 160.651 68.2373 160.419C68.9493 161.125 69.6837 161.808 70.4402 162.459C80.6652 171.5 94.139 176.991 108.881 176.991C126.305 176.991 142.427 169.449 153.453 156.207C153.564 156.075 153.675 155.954 153.775 155.821C153.82 155.854 153.853 155.888 153.898 155.91C154.999 156.67 156.156 157.1 157.313 157.211C160.896 157.53 162.821 156.174 163.789 154.972C165.825 152.481 165.892 148.236 164.022 142.326C162.81 138.522 163.6 138.257 165.702 137.529C167.405 136.945 169.975 136.052 170.587 132.766C171.455 128.047 168.506 124.794 166.615 123.24C166.693 122.06 166.726 120.858 166.726 119.667C166.726 103.481 159.928 88.8387 149.013 78.4192L148.668 78.0884C148.346 77.7907 148.023 77.493 147.7 77.2063C148.268 75.9494 151.795 67.3712 148.824 59.7964C147.244 55.7719 144.129 52.7618 139.578 50.8543C137.665 50.0604 135.74 49.6525 133.837 49.6525C131.935 49.6525 130.132 50.0384 128.296 50.7992C123.512 52.8059 119.696 57.1171 116.981 61.1856C113.888 60.7115 111.329 60.7666 107.201 60.3477C104.331 60.9651 108.759 69.3007 109.282 75.1004C109.482 77.2725 110.105 80.8559 110.383 83.017C111.451 91.4078 120.018 93.3263 124.558 88.8277C126.205 87.1848 127.006 85.0127 126.928 82.8627C126.872 81.1647 128.207 79.8305 129.921 79.8856C132.09 79.9628 134.293 79.18 135.94 77.5371C136.663 76.8204 137.219 76.0045 137.609 75.1335L140.435 75.6407C142.894 77.3828 145.197 79.3123 147.333 81.4183C139.845 93.3153 106.244 113.526 106.244 113.526L59.0804 140.826L58.7912 140.991C58.5241 140.374 58.2682 139.746 58.0235 139.117C56.9331 136.327 56.0653 133.428 55.4533 130.44C56.9331 130.848 58.5353 130.837 60.0929 130.329C62.3182 129.613 64.0205 128.036 64.9328 126.084C65.656 124.541 67.4696 123.956 68.9716 124.783C70.863 125.82 73.1884 126.106 75.4136 125.39C81.7778 123.328 83.8473 114.22 75.6139 109.623C73.6001 108.509 71.6864 107.23 70.0175 105.653C65.4001 101.298 62.8411 100.449 57.6563 97.1523C55.1529 96.5017 54.9638 103.669 53.4729 109.093C51.9263 108.277 49.2894 107.153 46.4078 107.153C45.7958 107.153 45.1616 107.197 44.5274 107.318C41.8905 107.814 39.6987 109.325 38.0297 111.817C36.6279 113.923 36.1828 116.216 36.7057 118.62C37.1842 120.836 38.4637 122.876 39.9323 124.607C36.817 125.357 34.2135 127.253 32.1997 130.274C30.3972 132.965 29.8298 135.897 30.4973 138.974ZM151.828 130.848C153.219 127.198 155.099 124.96 157.425 124.188C160.44 123.185 163.388 125.015 163.41 125.026L163.477 125.07C163.666 125.18 168.106 127.815 167.305 132.171C167.071 133.45 166.381 133.792 164.612 134.409C161.597 135.445 158.826 136.989 160.84 143.329C162.832 149.592 161.92 152.017 161.196 152.9C160.518 153.726 159.316 154.068 157.614 153.914C156.178 153.793 154.51 152.414 153.141 150.253C150.626 146.273 148.78 138.819 151.828 130.848ZM116.38 136.702C123.523 136.702 129.342 142.458 129.342 149.537C129.342 156.615 123.523 162.371 116.38 162.371C109.237 162.371 103.429 156.615 103.429 149.537C103.429 142.458 109.237 136.702 116.38 136.702Z" fill="#94D1CE"/>
<path d="M153.452 156.207C153.563 156.075 153.675 155.953 153.775 155.821C153.819 155.854 153.853 155.887 153.897 155.909L153.452 156.207Z" fill="#94D1CE"/>
<path d="M68.1034 161.103C68.1591 160.882 68.2036 160.651 68.237 160.419C68.949 161.125 69.6834 161.808 70.4399 162.459L68.1034 161.103Z" fill="#94D1CE"/>
</g>
<defs>
<clipPath id="clip0_60_2948">
<rect width="169.863" height="176.768" fill="white" transform="translate(170.742 176.991) rotate(-180)"/>
</clipPath>
</defs>
</svg>
