<svg width="171" height="177" viewBox="0 0 171 177" fill="none" xmlns="http://www.w3.org/2000/svg">
<g clip-path="url(#clip0_60_3067)">
<path d="M58.5129 26.2523L60.5824 32.912C59.2139 34.2792 57.3224 35.1282 55.2418 35.1282C51.0918 35.1282 47.7317 31.7984 47.7317 27.6857C47.7317 23.573 51.0918 20.2432 55.2418 20.2432C58.8022 20.2432 61.7952 22.713 62.5517 26.0318L59.4253 25.293C58.8467 25.1607 58.346 25.69 58.5129 26.2523Z" fill="#94D1CE"/>
<path d="M90.5342 73.7309C90.3116 75.892 90.1225 79.5305 89.8221 81.6916C89.0321 87.4692 91.4799 96.5766 88.5315 96.5436C82.6902 94.592 80.0088 94.3935 74.4569 91.2842C72.4542 90.1595 70.2734 89.3767 68.0593 88.7813C58.9359 86.3115 58.7134 76.9725 64.3877 73.4442C66.3682 72.2093 68.6824 71.9336 70.7852 72.4849C72.443 72.9149 74.0563 71.9116 74.379 70.2467C74.7906 68.1407 76.0479 66.1891 78.0284 64.9542C83.4691 61.5692 91.3909 65.3401 90.5453 73.7529L90.5342 73.7309Z" fill="#94D1CE"/>
<path d="M89.4103 117.305C89.5994 118.816 90.0445 121.33 90.178 122.84C90.5452 126.909 93.6494 132.742 91.6355 133.172C87.3408 132.742 85.4716 133.017 81.1992 131.749C79.6527 131.297 78.0505 131.099 76.4372 131.033C69.8283 130.757 68.1927 124.417 71.5194 121.131C72.6766 119.985 74.212 119.433 75.7362 119.489C76.9379 119.533 77.8725 118.595 77.8391 117.405C77.7835 115.905 78.3398 114.384 79.4969 113.226C82.679 110.072 88.676 111.418 89.4214 117.294L89.4103 117.305Z" fill="#94D1CE"/>
<path d="M109.916 102.971C109.76 104.482 109.627 107.029 109.415 108.54C108.859 112.586 110.572 118.959 108.514 118.937C104.431 117.57 102.539 117.426 98.6563 115.254C97.2544 114.472 95.7301 113.92 94.1724 113.501C87.786 111.77 87.6302 105.232 91.6023 102.762C92.993 101.902 94.6063 101.703 96.0861 102.089C97.2432 102.398 98.3781 101.692 98.6006 100.524C98.8899 99.0462 99.7689 97.679 101.16 96.819C104.965 94.4484 110.517 97.0836 109.916 102.971Z" fill="#94D1CE"/>
<path d="M131.601 92.2653C131.078 93.6986 130.321 96.1354 129.754 97.5467C128.218 101.34 128.319 107.933 126.327 107.415C122.7 105.099 120.909 104.515 117.671 101.461C116.503 100.358 115.156 99.4652 113.754 98.6824C107.991 95.4738 109.438 89.0898 113.899 87.6454C115.457 87.1382 117.081 87.3477 118.405 88.0754C119.451 88.6487 120.719 88.2408 121.231 87.1602C121.877 85.793 123.067 84.6904 124.625 84.1832C128.897 82.805 133.626 86.6972 131.612 92.2653H131.601Z" fill="#94D1CE"/>
<path d="M121.854 128C121.988 129.048 122.288 130.779 122.388 131.826C122.644 134.638 124.791 138.674 123.401 138.971C120.43 138.674 119.139 138.861 116.191 137.99C115.123 137.67 114.01 137.538 112.898 137.494C108.325 137.306 107.201 132.918 109.493 130.647C110.294 129.853 111.351 129.478 112.408 129.511C113.243 129.544 113.888 128.894 113.854 128.067C113.821 127.03 114.199 125.972 115 125.178C117.192 123.006 121.342 123.932 121.865 127.989L121.854 128Z" fill="#94D1CE"/>
<path d="M136.029 118.087C135.929 119.135 135.829 120.899 135.684 121.936C135.306 124.736 136.485 129.135 135.061 129.124C132.235 128.176 130.933 128.088 128.252 126.577C127.284 126.037 126.227 125.651 125.147 125.365C120.73 124.174 120.619 119.653 123.367 117.944C124.324 117.349 125.448 117.216 126.46 117.481C127.261 117.691 128.04 117.205 128.196 116.4C128.396 115.375 129.008 114.438 129.965 113.842C132.591 112.2 136.429 114.03 136.018 118.098L136.029 118.087Z" fill="#94D1CE"/>
<path d="M113.599 38.1059C113.243 37.5656 112.898 37.0033 112.542 36.3968L112.831 36.2314C113.098 36.8489 113.354 37.4774 113.599 38.1059Z" fill="#94D1CE"/>
<path d="M160.417 155.775L139.979 136.126C138.41 134.616 135.951 134.528 134.271 135.906C131.467 138.21 130.455 142.036 131.756 145.41L141.058 169.623C143.016 174.728 148.334 177.749 153.775 176.856C163.878 175.191 167.772 162.842 160.417 155.775Z" fill="#94D1CE"/>
<path d="M134.805 160.825L127.384 143.106C126.817 141.75 125.303 141.033 123.879 141.441C121.498 142.136 119.829 144.242 119.729 146.701L118.961 164.298C118.795 168.003 121.298 171.311 124.925 172.204C131.679 173.869 137.475 167.198 134.805 160.825Z" fill="#94D1CE"/>
<path d="M156.368 148.53L142.471 135.178C141.403 134.152 141.292 132.498 142.204 131.341C143.728 129.4 146.321 128.639 148.668 129.444L165.458 135.211C168.996 136.424 171.177 139.941 170.676 143.624C169.741 150.46 161.363 153.337 156.357 148.53H156.368Z" fill="#94D1CE"/>
<path d="M141.124 38.2489C140.379 34.864 138.209 31.7877 135.873 29.2959C136.607 28.491 137.297 27.7302 137.876 27.1237C144.607 20.012 139.845 11.1582 132.357 10.5407C129.62 10.3202 127.061 11.2464 125.192 12.8892C123.712 14.2013 121.487 14.0139 120.241 12.4923C118.661 10.5517 116.291 9.22862 113.554 9.0081C108.77 8.6222 104.531 11.7205 103.518 16.1198C103.462 16.3404 103.418 16.5719 103.385 16.8035C102.672 16.0978 101.938 15.4142 101.182 14.7637C90.9566 5.72237 77.4828 0.231445 62.7407 0.231445C45.3171 0.231445 29.1953 7.7732 18.1693 21.0154C18.058 21.1477 17.9468 21.269 17.8466 21.4013C17.8021 21.3682 17.7687 21.3351 17.7242 21.3131C16.6228 20.5523 15.4656 20.1223 14.3085 20.012C10.7259 19.6923 8.80106 21.0484 7.83308 22.2503C5.797 24.7421 5.73024 28.9871 7.59944 34.897C8.81219 38.701 8.02223 38.9656 5.91938 39.6933C4.21708 40.2777 1.64694 41.1708 1.035 44.4565C0.16716 49.1756 3.11559 52.4283 5.00704 53.983C4.92916 55.1627 4.89578 56.3646 4.89578 57.5554C4.89578 73.7415 11.6939 88.3839 22.6086 98.8035L22.9535 99.1342C23.2762 99.4319 23.5989 99.7296 23.9215 100.016C23.3541 101.273 19.8271 109.851 22.7978 117.426C24.3777 121.451 27.493 124.461 32.0436 126.368C33.9573 127.162 35.8821 127.57 37.7847 127.57C39.6873 127.57 41.4897 127.184 43.3255 126.423C48.1098 124.417 51.9261 120.106 54.6408 116.037C57.7339 116.511 60.2929 116.456 64.4207 116.875C67.2913 116.258 62.8631 107.922 62.3401 102.122C62.1399 99.9502 61.5168 96.3667 61.2387 94.2056C60.1705 85.8149 51.6034 83.8964 47.0639 88.395C45.4173 90.0378 44.6162 92.2099 44.6941 94.36C44.7497 96.058 43.4145 97.3921 41.7011 97.337C39.5315 97.2598 37.3285 98.0427 35.6819 99.6855C34.9587 100.402 34.4024 101.218 34.0129 102.089L31.1869 101.582C28.728 99.8399 26.4249 97.9104 24.2887 95.8044C31.7766 83.9074 65.3776 63.6968 65.3776 63.6968L112.541 36.3966L112.831 36.2312C113.098 36.8486 113.354 37.4771 113.598 38.1056C114.689 40.8952 115.557 43.795 116.169 46.783C114.689 46.3751 113.087 46.3861 111.529 46.8933C109.304 47.61 107.601 49.1867 106.689 51.1383C105.966 52.6819 104.152 53.2663 102.65 52.4393C100.759 51.4029 98.4334 51.1162 96.2082 51.8329C89.844 53.8948 87.7746 63.0022 96.0079 67.6C98.0217 68.7136 99.9354 69.9926 101.604 71.5694C106.222 75.9246 108.781 76.7736 113.966 80.0704C116.469 80.7209 116.658 73.554 118.149 68.1293C119.696 68.9452 122.332 70.0698 125.214 70.0698C125.826 70.0698 126.46 70.0257 127.094 69.9044C129.731 69.4083 131.923 67.8977 133.592 65.4058C134.994 63.2999 135.439 61.0065 134.916 58.6028C134.438 56.3866 133.158 54.3468 131.69 52.6157C134.805 51.866 137.408 49.9695 139.422 46.9484C141.225 44.2581 141.792 41.3252 141.124 38.2489ZM19.7937 46.3751C18.4029 50.0246 16.5226 52.2629 14.1972 53.0347C11.1821 54.0381 8.23363 52.2078 8.21137 52.1968L8.14462 52.1527C7.95547 52.0424 3.51613 49.4072 4.31722 45.0519C4.55087 43.7729 5.24069 43.4311 7.00975 42.8137C10.0249 41.7772 12.7954 40.2336 10.7815 33.8937C8.78993 27.6309 9.70228 25.2052 10.4255 24.3232C11.1042 23.4962 12.3058 23.1544 14.0081 23.3088C15.4434 23.43 17.1123 24.8083 18.4808 26.9694C20.9953 30.9497 22.8423 38.4033 19.7937 46.3751ZM55.2417 40.5203C48.0987 40.5203 42.2797 34.7647 42.2797 27.6861C42.2797 20.6074 48.0987 14.8519 55.2417 14.8519C62.3847 14.8519 68.1925 20.6074 68.1925 27.6861C68.1925 34.7647 62.3847 40.5203 55.2417 40.5203Z" fill="#94D1CE"/>
<path d="M18.1697 21.0156C18.0584 21.1479 17.9471 21.2692 17.847 21.4015C17.8025 21.3685 17.7691 21.3354 17.7246 21.3133L18.1697 21.0156Z" fill="#94D1CE"/>
<path d="M103.518 16.1199C103.463 16.3404 103.418 16.5719 103.385 16.8035C102.673 16.0978 101.938 15.4142 101.182 14.7637L103.518 16.1199Z" fill="#94D1CE"/>
</g>
<defs>
<clipPath id="clip0_60_3067">
<rect width="169.863" height="176.768" fill="white" transform="translate(0.879639 0.231445)"/>
</clipPath>
</defs>
</svg>
