<svg width="37" height="37" viewBox="0 0 37 37" fill="none" xmlns="http://www.w3.org/2000/svg">
<path d="M12.0249 3.08398H24.9749C29.9083 3.08398 33.9166 7.09232 33.9166 12.0257V24.9757C33.9166 27.3471 32.9745 29.6215 31.2976 31.2984C29.6207 32.9753 27.3464 33.9173 24.9749 33.9173H12.0249C7.09159 33.9173 3.08325 29.909 3.08325 24.9757V12.0257C3.08325 9.65417 4.02532 7.37983 5.70221 5.70294C7.37909 4.02605 9.65344 3.08398 12.0249 3.08398ZM11.7166 6.16732C10.2446 6.16732 8.83297 6.75205 7.79214 7.79288C6.75132 8.8337 6.16659 10.2454 6.16659 11.7173V25.284C6.16659 28.3519 8.64867 30.834 11.7166 30.834H25.2833C26.7552 30.834 28.1669 30.2493 29.2077 29.2084C30.2485 28.1676 30.8333 26.7559 30.8333 25.284V11.7173C30.8333 8.6494 28.3512 6.16732 25.2833 6.16732H11.7166ZM26.5937 8.47982C27.1048 8.47982 27.5949 8.68285 27.9563 9.04425C28.3177 9.40565 28.5208 9.89581 28.5208 10.4069C28.5208 10.918 28.3177 11.4082 27.9563 11.7696C27.5949 12.131 27.1048 12.334 26.5937 12.334C26.0826 12.334 25.5924 12.131 25.231 11.7696C24.8696 11.4082 24.6666 10.918 24.6666 10.4069C24.6666 9.89581 24.8696 9.40565 25.231 9.04425C25.5924 8.68285 26.0826 8.47982 26.5937 8.47982ZM18.4999 10.7923C20.5443 10.7923 22.5049 11.6044 23.9505 13.05C25.3961 14.4956 26.2083 16.4563 26.2083 18.5007C26.2083 20.545 25.3961 22.5057 23.9505 23.9513C22.5049 25.3969 20.5443 26.209 18.4999 26.209C16.4555 26.209 14.4949 25.3969 13.0493 23.9513C11.6037 22.5057 10.7916 20.545 10.7916 18.5007C10.7916 16.4563 11.6037 14.4956 13.0493 13.05C14.4949 11.6044 16.4555 10.7923 18.4999 10.7923ZM18.4999 13.8757C17.2733 13.8757 16.0969 14.3629 15.2295 15.2303C14.3622 16.0976 13.8749 17.274 13.8749 18.5007C13.8749 19.7273 14.3622 20.9037 15.2295 21.771C16.0969 22.6384 17.2733 23.1257 18.4999 23.1257C19.7265 23.1257 20.9029 22.6384 21.7703 21.771C22.6376 20.9037 23.1249 19.7273 23.1249 18.5007C23.1249 17.274 22.6376 16.0976 21.7703 15.2303C20.9029 14.3629 19.7265 13.8757 18.4999 13.8757Z" fill="white"/>
</svg>
