<svg width="73" height="54" viewBox="0 0 73 54" fill="none" xmlns="http://www.w3.org/2000/svg">
<g clip-path="url(#clip0_312_471)">
<path d="M72.1414 34.9263C71.1581 36.0988 69.8659 37.1514 68.4477 37.9015C67.9623 46.8395 53.7233 54 36.2317 54C18.7402 54 4.665 46.9214 4.02207 38.0528C2.60384 37.5107 1.26124 36.7039 0.177083 35.7458C-0.201112 35.4117 0.0762312 34.7877 0.580492 34.8192C0.864138 34.8381 1.14778 34.8444 1.44404 34.8444C3.12701 34.8192 4.60827 33.6846 5.02429 32.0521C5.66722 29.5245 6.48034 27.249 7.38171 25.2193C7.84184 24.1793 7.81663 23.0258 7.31867 22.0047C4.05989 15.2602 3.99686 7.71519 7.1737 0.945493C7.59602 0.0441271 8.82515 -0.277339 9.72021 0.264741C11.9579 1.61994 14.3342 2.84277 16.8303 3.92693C18.6897 4.74005 20.6248 5.47753 22.3204 6.46084C22.6734 6.66255 23.0138 6.87055 23.3416 7.09747C24.3942 7.82235 25.7368 8.13121 27.0164 7.84756C28.5543 7.50718 30.1743 7.25505 31.8636 7.09747L32.6704 6.51127C33.66 4.22319 35.1349 2.14941 36.9629 0.447536C37.3222 0.113463 37.8895 0.472749 37.7382 0.93919C37.089 2.84908 36.7927 4.87242 36.8557 6.88946C36.8557 6.97141 36.8557 7.05965 36.862 7.14159C36.9314 7.05965 37.0007 6.97771 37.0763 6.89577C38.7467 4.96067 40.7385 3.30291 42.9384 2.00444C43.2914 1.79013 43.7326 2.09269 43.6506 2.49609L42.9762 5.87464C42.8753 6.36629 42.7808 6.90837 43.0266 7.3496C43.0392 7.36851 43.0518 7.38742 43.0581 7.40633C43.9721 7.545 44.8609 7.71519 45.7181 7.91059C47.0229 8.20684 48.3844 7.90429 49.4496 7.1542C49.7963 6.90837 50.1619 6.68146 50.5401 6.46715C52.242 5.48384 54.1708 4.74636 56.0302 3.93324C58.5263 2.84908 60.9027 1.62624 63.1403 0.271044C64.0354 -0.271036 65.2645 0.0504303 65.6868 0.958099C68.9267 7.84756 68.8006 15.5438 65.3591 22.3829C64.8485 23.4103 64.8107 24.5764 65.2645 25.6227C66.0083 27.3624 66.7017 29.2786 67.269 31.3776C67.7795 33.2686 69.6768 34.504 71.593 34.0817C71.6056 34.0817 71.6182 34.0817 71.6245 34.0754C72.1225 33.962 72.4754 34.5355 72.1477 34.9327L72.1414 34.9263Z" fill="#0B033B"/>
<path d="M37.0695 6.88912C36.9939 6.97106 36.9245 7.053 36.8552 7.13494C36.8489 7.053 36.8489 6.96475 36.8489 6.88281C36.8489 7.27992 36.9939 6.88281 37.0695 6.88912Z" fill="#1D1D1B"/>
<path d="M31.3524 28.6474C31.3524 33.8161 28.0684 38.0078 24.0217 38.0078C24.0217 38.0078 18.3236 38.2536 13.7222 33.6964C13.2936 33.274 13.1108 32.6563 13.262 32.0701C13.9869 29.221 16.6658 20.636 22.7737 19.4258C22.8178 19.4195 22.8619 19.4069 22.906 19.3943C23.2653 19.3375 23.6372 19.2997 24.0217 19.2871C28.0684 19.2871 31.3524 23.4788 31.3524 28.6474Z" fill="white"/>
<path d="M41.1981 28.6474C41.1981 33.8161 44.4821 38.0078 48.5288 38.0078C48.5288 38.0078 54.227 38.2536 58.8283 33.6964C59.257 33.274 59.4397 32.6563 59.2885 32.0701C58.5636 29.221 55.8847 20.636 49.7769 19.4258C49.7327 19.4195 49.6886 19.4069 49.6445 19.3943C49.2852 19.3375 48.9133 19.2997 48.5288 19.2871C44.4821 19.2871 41.1981 23.4788 41.1981 28.6474Z" fill="white"/>
<path d="M34.9074 42.5209L32.7958 40.5606C31.9259 39.7538 32.3735 38.0078 33.4513 38.0078H38.683C39.7483 38.0078 40.2021 39.716 39.3638 40.5354L37.372 42.4768C36.6471 43.1828 35.6449 43.1954 34.9074 42.5146V42.5209Z" fill="#F7D6F8"/>
<path d="M49.0961 36.5777C52.5216 36.5777 55.2985 33.0276 55.2985 28.6482C55.2985 24.2689 52.5216 20.7188 49.0961 20.7188C45.6706 20.7188 42.8937 24.2689 42.8937 28.6482C42.8937 33.0276 45.6706 36.5777 49.0961 36.5777Z" fill="#0B033B"/>
<path d="M23.3914 36.5777C26.8169 36.5777 29.5938 33.0276 29.5938 28.6482C29.5938 24.2689 26.8169 20.7188 23.3914 20.7188C19.9659 20.7188 17.189 24.2689 17.189 28.6482C17.189 33.0276 19.9659 36.5777 23.3914 36.5777Z" fill="#0B033B"/>
<path d="M52.9724 28.0485C54.1321 27.2346 54.2293 25.3736 53.1895 23.8919C52.1496 22.4101 50.3665 21.8687 49.2067 22.6826C48.047 23.4965 47.9498 25.3575 48.9896 26.8392C50.0295 28.321 51.8126 28.8624 52.9724 28.0485Z" fill="white"/>
<path d="M65.1063 12.6073C65.2702 15.2673 63.9528 18.4126 62.9443 20.3918C62.44 21.3815 61.1101 21.5832 60.3285 20.7953L55.5191 15.9922C54.9959 15.6329 54.5673 15.198 54.2395 14.7126L54.2269 14.7C53.8046 14.076 53.5651 13.3637 53.5651 12.6073C53.5777 12.3741 53.5966 12.1409 53.6344 11.9203C53.6407 11.895 53.647 11.8635 53.6533 11.8383C54.3971 8.06897 59.6918 6.42382 61.4441 5.97629C61.8097 5.88174 62.1879 5.9952 62.4527 6.25994C65.2576 9.0964 65.1063 12.6073 65.1063 12.6073Z" fill="#F7D6F8"/>
<path d="M27.284 28.0524C28.4438 27.2385 28.541 25.3775 27.5011 23.8958C26.4613 22.414 24.6781 21.8726 23.5184 22.6865C22.3586 23.5004 22.2614 25.3614 23.3013 26.8431C24.3411 28.3249 26.1243 28.8663 27.284 28.0524Z" fill="white"/>
<path d="M8.38337 12.613C8.21948 15.2667 9.54316 18.4183 10.5517 20.3912C11.0559 21.3808 12.3796 21.5825 13.1675 20.8009L17.9769 15.9915L19.2628 14.7057C19.6851 14.0816 19.9246 13.3694 19.9246 12.613C19.9183 12.3735 19.8931 12.1465 19.8553 11.9196C19.8553 11.8944 19.8427 11.8692 19.8364 11.844C19.0926 8.07464 13.7979 6.42318 12.0456 5.97565C11.6863 5.88741 11.3018 5.99456 11.0433 6.2593C8.23209 9.09577 8.38337 12.613 8.38337 12.613Z" fill="#F7D6F8"/>
<path d="M53.42 15.872C53.42 15.872 57.5424 13.1364 60.5364 12.7456C60.6751 12.7267 60.757 12.8969 60.6688 13.004L57.7819 16.2313C57.6873 16.3384 57.7756 16.5086 57.9143 16.4897C58.4879 16.4015 59.6098 16.3258 61.2928 16.6599C61.4378 16.6914 61.463 16.8868 61.3306 16.9499L56.1935 19.4523L53.42 15.872Z" fill="#0B033B"/>
<path d="M20.5865 15.872C20.5865 15.872 16.4642 13.1364 13.4701 12.7456C13.3314 12.7267 13.2495 12.8969 13.3377 13.004L16.2246 16.2313C16.3192 16.3384 16.2309 16.5086 16.0923 16.4897C15.5187 16.4015 14.3967 16.3258 12.7137 16.6599C12.5688 16.6914 12.5435 16.8868 12.6759 16.9499L17.8131 19.4523L20.5865 15.872Z" fill="#0B033B"/>
<path d="M56.3511 31.5027C56.3511 32.6247 55.6388 33.5387 54.7563 33.5387C53.8739 33.5387 53.1616 32.6247 53.1616 31.5027C53.1616 30.3808 53.8739 29.4668 54.7563 29.4668C55.6388 29.4668 56.3511 30.3808 56.3511 31.5027Z" fill="white"/>
<path d="M19.7733 31.5027C19.7733 32.6247 19.061 33.5387 18.1786 33.5387C17.2961 33.5387 16.5839 32.6247 16.5839 31.5027C16.5839 30.3808 17.2961 29.4668 18.1786 29.4668C19.061 29.4668 19.7733 30.3808 19.7733 31.5027Z" fill="white"/>
</g>
<defs>
<clipPath id="clip0_312_471">
<rect width="72.2731" height="54" fill="white"/>
</clipPath>
</defs>
</svg>
