<svg width="146" height="80" viewBox="0 0 146 80" fill="none" xmlns="http://www.w3.org/2000/svg">
<path d="M52.1033 59.2117C58.7846 59.2117 64.2009 52.9378 64.2009 45.1986C64.2009 37.4594 58.7846 31.1855 52.1033 31.1855C45.422 31.1855 40.0057 37.4594 40.0057 45.1986C40.0057 52.9378 45.422 59.2117 52.1033 59.2117Z" fill="white"/>
<path d="M52.1033 52.3629C55.4062 52.3629 58.0837 49.1559 58.0837 45.2C58.0837 41.244 55.4062 38.0371 52.1033 38.0371C48.8004 38.0371 46.1229 41.244 46.1229 45.2C46.1229 49.1559 48.8004 52.3629 52.1033 52.3629Z" fill="#0B033B"/>
<path d="M117.018 47.6618C117.018 65.3882 97.132 79.7628 72.5949 79.7628C48.0577 79.7628 28.1622 65.3882 28.1622 47.6618C28.1622 46.6357 28.2306 45.6292 28.3674 44.6227H28.3479L34.2599 4.04932C34.2501 3.9516 34.2501 3.86366 34.2501 3.76594C34.2501 0.980918 37.5823 -0.602149 39.7419 1.29362L54.7124 14.4076C56.7156 16.1666 59.4127 16.9484 62.0413 16.4793C65.4224 15.893 68.9598 15.5705 72.5949 15.5705C76.23 15.5705 79.9238 15.9028 83.383 16.5282C86.0214 17.007 88.7282 16.235 90.7412 14.4663L105.77 1.29362C107.998 -0.660781 111.487 1.07864 111.252 4.03955L116.676 43.665L116.881 45.1797C116.969 46.0103 117.018 46.8312 117.018 47.6618Z" fill="#0B033B"/>
<path d="M93.2233 59.2117C99.9046 59.2117 105.321 52.9378 105.321 45.1986C105.321 37.4594 99.9046 31.1855 93.2233 31.1855C86.542 31.1855 81.1257 37.4594 81.1257 45.1986C81.1257 52.9378 86.542 59.2117 93.2233 59.2117Z" fill="white"/>
<path d="M93.2233 52.3629C96.5262 52.3629 99.2037 49.1559 99.2037 45.2C99.2037 41.244 96.5262 38.0371 93.2233 38.0371C89.9204 38.0371 87.2429 41.244 87.2429 45.2C87.2429 49.1559 89.9204 52.3629 93.2233 52.3629Z" fill="#0B033B"/>
<path d="M9.50774 35.397L22.7486 41.0159C23.7649 41.4459 24.2926 42.5697 23.9701 43.6251C23.4326 45.384 21.8398 46.6153 20.0027 46.6837L6.8107 47.1528C4.02572 47.2505 1.56321 45.3743 0.91827 42.6674C-0.283669 37.6348 4.74884 33.3742 9.50774 35.397Z" fill="#0B033B"/>
<path d="M12.1657 48.3164L21.9473 48.2578C22.6997 48.2578 23.3251 48.8148 23.4131 49.5575C23.5597 50.7985 22.8952 52.0005 21.7616 52.5282L13.651 56.3783C11.9409 57.1894 9.89859 56.6813 8.76505 55.1666C6.65433 52.3523 8.65756 48.336 12.1657 48.3164Z" fill="#0B033B"/>
<path d="M52.1033 59.2117C58.7846 59.2117 64.2009 52.9378 64.2009 45.1986C64.2009 37.4594 58.7846 31.1855 52.1033 31.1855C45.422 31.1855 40.0057 37.4594 40.0057 45.1986C40.0057 52.9378 45.422 59.2117 52.1033 59.2117Z" fill="white"/>
<path d="M52.1033 52.3629C55.4062 52.3629 58.0837 49.1559 58.0837 45.2C58.0837 41.244 55.4062 38.0371 52.1033 38.0371C48.8004 38.0371 46.1229 41.244 46.1229 45.2C46.1229 49.1559 48.8004 52.3629 52.1033 52.3629Z" fill="#0B033B"/>
<path d="M136.307 35.2408L123.067 40.8597C122.05 41.2897 121.523 42.4134 121.845 43.4688C122.383 45.2278 123.975 46.4591 125.812 46.5275L139.004 46.9965C141.789 47.0942 144.252 45.218 144.897 42.5112C146.099 37.4786 141.066 33.218 136.307 35.2408Z" fill="#0B033B"/>
<path d="M133.65 48.1602L123.868 48.1016C123.115 48.1016 122.49 48.6586 122.402 49.4012C122.256 50.6423 122.92 51.8442 124.054 52.3719L132.164 56.2221C133.874 57.0332 135.917 56.525 137.05 55.0104C139.161 52.196 137.158 48.1797 133.65 48.1602Z" fill="#0B033B"/>
</svg>
