<svg width="200" height="160" viewBox="0 0 200 160" fill="none" xmlns="http://www.w3.org/2000/svg">
<path d="M158.09 115.3C157.123 122.081 156.135 133.469 154.941 140.189C151.793 158.282 158.389 187.118 149.225 186.666C131.322 179.866 122.905 178.885 106.015 168.533C99.9206 164.776 93.1831 162.06 86.4071 159.941C58.3556 151.15 58.708 121.748 76.7298 111.343C83.0482 107.695 90.2543 107.077 96.7623 109.063C101.87 110.614 106.968 107.671 108.179 102.472C109.712 95.8426 113.85 89.9112 120.169 86.2632C137.473 76.2729 161.675 89.0092 158.09 115.3Z" fill="white"/>
<path d="M52.9261 125.661C63.4741 119.571 66.5312 105.119 59.7545 93.3811C52.9778 81.6435 38.9335 77.065 28.3855 83.1549C17.8375 89.2448 14.7802 103.697 21.5569 115.434C28.3337 127.172 42.3781 131.75 52.9261 125.661Z" fill="white"/>
<path d="M89.8786 82.8813C100.427 76.7914 103.484 62.3394 96.7072 50.6018C89.9305 38.8642 75.886 34.2858 65.338 40.3757C54.79 46.4656 51.7329 60.9176 58.5096 72.6552C65.2863 84.3928 79.3306 88.9712 89.8786 82.8813Z" fill="white"/>
<path d="M149.998 69.6157C160.546 63.5258 163.603 49.0738 156.826 37.3362C150.05 25.5985 136.005 21.0202 125.457 27.1101C114.909 33.1999 111.852 47.6519 118.629 59.3895C125.405 71.1271 139.45 75.7056 149.998 69.6157Z" fill="white"/>
<path d="M132.8 156.54C143.348 150.45 146.405 135.998 139.629 124.26C132.852 112.522 118.807 107.944 108.259 114.034C97.7114 120.124 94.6543 134.576 101.431 146.313C108.208 158.051 122.252 162.629 132.8 156.54Z" fill="#F8D7F9"/>
</svg>
