<svg width="45" height="45" viewBox="0 0 45 45" fill="none" xmlns="http://www.w3.org/2000/svg">
<path d="M26.0035 31.1815C24.7244 31.642 22.6354 32.5269 21.3459 32.942C17.8805 34.071 13.4364 37.9073 12.6642 36.258C12.1932 32.4865 11.5832 30.9194 11.8292 26.9953C11.9218 25.5775 11.7721 24.1436 11.5141 22.7584C10.4493 17.0221 15.6383 14.3519 19.1376 16.5456C20.3644 17.3147 21.1424 18.521 21.3987 19.8469C21.6014 20.8867 22.5912 21.5072 23.6154 21.2366C24.9205 20.8895 26.3452 21.0641 27.5721 21.8332C30.9319 23.9395 30.9472 29.3674 26.0035 31.1815Z" fill="#0B033B"/>
<path d="M14.4147 13.7011C16.4627 14.9851 19.2813 14.1784 20.71 11.8993C22.1388 9.6202 21.6367 6.7318 19.5886 5.44785C17.5406 4.1639 14.722 4.9706 13.2933 7.24968C11.8645 9.52876 12.3666 12.4172 14.4147 13.7011Z" fill="#0B033B"/>
<path d="M25.3507 16.207C27.3988 17.4909 30.2173 16.6842 31.6461 14.4051C33.0748 12.1261 32.5728 9.23765 30.5247 7.9537C28.4766 6.66975 25.658 7.47646 24.2293 9.75554C22.8005 12.0346 23.3026 14.923 25.3507 16.207Z" fill="#0B033B"/>
<path d="M33.2633 25.5175C35.3114 26.8015 38.1299 25.9948 39.5587 23.7157C40.9874 21.4366 40.4854 18.5482 38.4373 17.2642C36.3892 15.9803 33.5706 16.787 32.1419 19.0661C30.7131 21.3452 31.2152 24.2336 33.2633 25.5175Z" fill="#0B033B"/>
<path d="M16.421 30.5781C18.4691 31.862 21.2876 31.0553 22.7164 28.7762C24.1451 26.4972 23.6431 23.6087 21.595 22.3248C19.5469 21.0408 16.7284 21.8476 15.2996 24.1266C13.8708 26.4057 14.3729 29.2941 16.421 30.5781Z" fill="#F8D7F9"/>
</svg>
