<svg width="41" height="56" viewBox="0 0 41 56" fill="none" xmlns="http://www.w3.org/2000/svg">
<path d="M24.305 36.6391C23.0349 37.0122 20.9682 37.7525 19.685 38.0802C16.2372 38.9742 11.9515 42.4754 11.0752 40.8005C10.3833 37.0523 9.67598 35.4686 9.70217 31.6154C9.71541 30.2233 9.48206 28.8001 9.14183 27.418C7.73646 21.6951 12.8434 19.3907 16.5144 21.7748C17.8015 22.6107 18.6585 23.8492 18.9937 25.1727C19.2582 26.2107 20.2966 26.8851 21.3192 26.683C22.6221 26.4234 24.0759 26.6856 25.363 27.5215C28.8878 29.8107 29.2119 35.1631 24.305 36.6391Z" fill="#0B033B"/>
<path d="M12.6076 17.4915C14.7624 18.8912 17.5809 18.2722 18.903 16.1089C20.2251 13.9457 19.5501 11.0573 17.3954 9.65752C15.2407 8.25777 12.4221 8.87673 11.1 11.04C9.7779 13.2033 10.4529 16.0917 12.6076 17.4915Z" fill="#0B033B"/>
<path d="M23.5436 19.9953C25.6984 21.3951 28.5169 20.7761 29.839 18.6128C31.1611 16.4496 30.4862 13.5612 28.3314 12.1614C26.1767 10.7617 23.3582 11.3806 22.036 13.5439C20.7139 15.7072 21.3889 18.5956 23.5436 19.9953Z" fill="#0B033B"/>
<path d="M31.4564 29.3059C33.6111 30.7056 36.4296 30.0867 37.7518 27.9234C39.0739 25.7601 38.3989 22.8717 36.2441 21.472C34.0894 20.0722 31.2709 20.6912 29.9488 22.8545C28.6267 25.0178 29.3016 27.9061 31.4564 29.3059Z" fill="#0B033B"/>
</svg>
