<svg width="34" height="35" viewBox="0 0 34 35" fill="none" xmlns="http://www.w3.org/2000/svg">
<path d="M22.0469 34.9993C18.7538 34.9993 16.2384 33.4004 14.9774 31.9856L3.94273 20.8485C-3.41801 13.4194 1.34087 6.6686 3.7315 4.11363C4.38757 3.40949 5.27726 3.01542 6.23736 2.99927C7.21025 2.97343 8.11274 3.35781 8.80081 4.04903L10.2346 5.49609C11.9979 7.27584 12.2348 10.0666 10.8042 12.1435C10.7434 12.5893 11.6587 14.0525 12.9196 15.2379C12.9292 15.2476 12.942 15.2573 12.9516 15.2702L20.9044 23.2968C22.1205 24.5243 22.7926 24.6502 22.9942 24.6567C24.8344 22.8866 27.7595 22.9125 29.5677 24.7374L30.963 26.1457C31.6703 26.8596 32.0479 27.848 31.9967 28.859C31.9455 29.8635 31.4751 30.8035 30.707 31.4365C27.5099 34.069 24.5528 34.9928 22.0501 34.9928L22.0469 34.9993ZM6.29176 5.5833C6.29176 5.5833 6.28216 5.5833 6.27576 5.5833C6.01333 5.58653 5.77011 5.69312 5.59409 5.8837C2.74901 8.92962 0.463978 13.681 5.75411 19.0203L16.8144 30.1833C16.8336 30.2027 16.8496 30.2188 16.8656 30.2382C17.0576 30.4514 21.7429 35.4838 29.0876 29.4404C29.3725 29.2046 29.4301 28.8977 29.4397 28.733C29.4493 28.5683 29.4205 28.2485 29.1516 27.9772L27.7563 26.5689C27.3499 26.1587 26.8122 25.9326 26.2394 25.9326C25.6665 25.9326 25.1256 26.1587 24.7224 26.5656L24.6264 26.6625C24.604 26.6852 24.5816 26.7045 24.5592 26.7239C24.348 26.908 22.383 28.4423 19.093 25.1218L11.1562 17.1113C10.1513 16.1617 7.09504 12.9736 8.6952 10.6771C9.42487 9.62731 9.31286 8.21901 8.42317 7.32106L6.98943 5.87401C6.80061 5.68343 6.55419 5.58007 6.28856 5.58007L6.29176 5.5833Z" fill="white"/>
<circle cx="26" cy="8" r="8" fill="white"/>
<path d="M18 16H26L18 8V16Z" fill="white"/>
<path d="M27.6934 11.0601C27.2848 11.2533 26.6216 11.6129 26.2081 11.7914C25.0972 12.2757 23.7488 13.6872 23.4406 13.166C23.1643 11.9328 22.9124 11.4336 22.8685 10.127C22.8539 9.65478 22.7586 9.18498 22.629 8.73475C22.0935 6.87022 23.7256 5.82083 24.9538 6.43518C25.3844 6.65057 25.6804 7.02498 25.8076 7.45563C25.9078 7.79331 26.2552 7.96709 26.5856 7.8448C27.0065 7.68828 27.4836 7.7006 27.9142 7.91599C29.0934 8.50586 29.2717 10.3018 27.6934 11.0601Z" fill="#0B033B"/>
<path d="M23.2999 5.64351C24.0187 6.00308 24.9258 5.64611 25.3259 4.8462C25.726 4.04629 25.4677 3.10634 24.7488 2.74677C24.03 2.3872 23.1229 2.74416 22.7228 3.54407C22.3226 4.34398 22.581 5.28393 23.2999 5.64351Z" fill="#0B033B"/>
<path d="M26.9993 6.12397C27.7181 6.48355 28.6253 6.12658 29.0254 5.32667C29.4255 4.52676 29.1671 3.58681 28.4483 3.22724C27.7295 2.86766 26.8224 3.22463 26.4222 4.02454C26.0221 4.82445 26.2805 5.7644 26.9993 6.12397Z" fill="#0B033B"/>
<path d="M29.9153 8.9521C30.6342 9.31167 31.5413 8.95471 31.9414 8.1548C32.3415 7.35488 32.0832 6.41493 31.3643 6.05536C30.6455 5.69579 29.7384 6.05275 29.3382 6.85267C28.9381 7.65258 29.1965 8.59252 29.9153 8.9521Z" fill="#0B033B"/>
</svg>
