<svg width="170" height="177" viewBox="0 0 170 177" fill="none" xmlns="http://www.w3.org/2000/svg">
<g clip-path="url(#clip0_227_4293)">
<path d="M112.229 150.971L110.16 144.312C111.529 142.944 113.42 142.095 115.501 142.095C119.651 142.095 123.011 145.425 123.011 149.538C123.011 153.651 119.651 156.98 115.501 156.98C111.94 156.98 108.947 154.511 108.191 151.192L111.317 151.931C111.896 152.063 112.396 151.534 112.229 150.971Z" fill="#FFE5FF"/>
<path d="M80.2084 103.493C80.4309 101.332 80.6201 97.6931 80.9205 95.532C81.7104 89.7544 79.2627 80.647 82.2111 80.6801C88.0523 82.6317 90.7337 82.8301 96.2857 85.9395C98.2884 87.0641 100.469 87.8469 102.683 88.4423C111.807 90.9122 112.029 100.251 106.355 103.779C104.374 105.014 102.06 105.29 99.9573 104.739C98.2995 104.309 96.6862 105.312 96.3636 106.977C95.9519 109.083 94.6946 111.035 92.7142 112.269C87.2735 115.654 79.3517 111.884 80.1973 103.471L80.2084 103.493Z" fill="#FFE5FF"/>
<path d="M81.3321 59.9183C81.143 58.4077 80.6979 55.8938 80.5644 54.3832C80.1973 50.3146 77.0931 44.4819 79.1069 44.0519C83.4016 44.4819 85.2708 44.2063 89.5432 45.4743C91.0898 45.9263 92.6919 46.1248 94.3052 46.1909C100.914 46.4666 102.55 52.8065 99.223 56.0922C98.0659 57.2389 96.5305 57.7902 95.0062 57.7351C93.8046 57.691 92.87 58.6282 92.9033 59.819C92.959 61.3186 92.4027 62.8401 91.2455 63.9979C88.0635 67.1513 82.0665 65.8061 81.321 59.9293L81.3321 59.9183Z" fill="#FFE5FF"/>
<path d="M60.8266 74.2522C60.9824 72.7416 61.1159 70.1946 61.3273 68.6841C61.8836 64.6375 60.1702 58.2645 62.2285 58.2866C66.3118 59.6538 68.2033 59.7971 72.0863 61.9693C73.4882 62.7521 75.0125 63.3034 76.5701 63.7224C82.9566 65.4535 83.1123 71.9919 79.1403 74.4617C77.7495 75.3217 76.1362 75.5202 74.6564 75.1343C73.4993 74.8255 72.3645 75.5312 72.1419 76.6999C71.8526 78.1774 70.9737 79.5446 69.5829 80.4047C65.7778 82.7752 60.2258 80.14 60.8266 74.2522Z" fill="#FFE5FF"/>
<path d="M39.1418 84.9593C39.6648 83.526 40.4213 81.0892 40.9888 79.6779C42.5242 75.885 42.424 69.2915 44.4156 69.8097C48.0428 72.1251 49.8341 72.7095 53.0718 75.7637C54.24 76.8663 55.5863 77.7594 56.9882 78.5422C62.7515 81.7508 61.3051 88.1348 56.8435 89.5792C55.2859 90.0864 53.6615 89.8769 52.3375 89.1492C51.2916 88.5759 50.0232 88.9838 49.5114 90.0644C48.8661 91.4316 47.6756 92.5342 46.1179 93.0414C41.8455 94.4196 37.1169 90.5275 39.1307 84.9593L39.1418 84.9593Z" fill="#FFE5FF"/>
<path d="M48.8884 49.2242C48.7549 48.1767 48.4545 46.4456 48.3543 45.3982C48.0984 42.5866 45.9511 38.5511 47.3418 38.2534C50.3125 38.5511 51.6032 38.3636 54.5516 39.2347C55.6197 39.5544 56.7323 39.6867 57.8449 39.7308C62.4178 39.9183 63.5415 44.3066 61.2495 46.578C60.4484 47.3718 59.3915 47.7467 58.3345 47.7136C57.5 47.6805 56.8547 48.3311 56.8881 49.158C56.9215 50.1945 56.5432 51.253 55.7421 52.0468C53.5502 54.2189 49.4002 53.2928 48.8772 49.2352L48.8884 49.2242Z" fill="#FFE5FF"/>
<path d="M34.7136 59.1352C34.8137 58.0877 34.9138 56.3236 35.0585 55.2871C35.4368 52.4865 34.2574 48.0872 35.6815 48.0982C38.5076 49.0464 39.8093 49.1347 42.4907 50.6452C43.4587 51.1855 44.5157 51.5714 45.5949 51.8581C50.012 53.0489 50.1233 57.5695 47.3751 59.2785C46.4183 59.8739 45.2945 60.0062 44.2821 59.7416C43.481 59.5321 42.7021 60.0173 42.5464 60.8222C42.3461 61.8476 41.7342 62.7848 40.7773 63.3802C38.1515 65.023 34.313 63.1927 34.7247 59.1242L34.7136 59.1352Z" fill="#FFE5FF"/>
<path d="M57.1439 139.118C57.5 139.658 57.8449 140.22 58.2009 140.827L57.9116 140.992C57.6446 140.375 57.3887 139.746 57.1439 139.118Z" fill="#FFE5FF"/>
<path d="M10.3251 21.45L30.7638 41.0983C32.3326 42.6088 34.7915 42.697 36.4716 41.3188C39.2754 39.0144 40.2878 35.1884 38.9861 31.8144L29.6846 7.60143C27.7264 2.49641 22.4081 -0.524698 16.9674 0.368402C6.86485 2.03332 2.97069 14.3824 10.3251 21.45Z" fill="#FFE5FF"/>
<path d="M35.9374 16.3988L43.3586 34.1175C43.926 35.4737 45.4392 36.1904 46.8633 35.7824C49.2443 35.0878 50.9132 32.9818 51.0134 30.523L51.7811 12.9256C51.948 9.2209 49.4446 5.91312 45.8174 5.02002C39.0639 3.3551 33.2671 10.0258 35.9374 16.3988Z" fill="#FFE5FF"/>
<path d="M14.375 28.6926L28.2716 42.045C29.3397 43.0704 29.451 44.7243 28.5386 45.882C27.0143 47.8226 24.4219 48.5834 22.0743 47.7785L5.28495 42.0119C1.74683 40.7991 -0.433904 37.2818 0.0667756 33.5991C1.00137 26.763 9.37937 23.8852 14.3861 28.6926L14.375 28.6926Z" fill="#FFE5FF"/>
<path d="M29.6181 138.975C30.3635 142.36 32.5331 145.436 34.8696 147.928C34.1353 148.733 33.4455 149.493 32.8669 150.1C26.1356 157.212 30.8976 166.065 38.3855 166.683C41.1225 166.903 43.6815 165.977 45.5507 164.334C47.0305 163.022 49.2557 163.21 50.5019 164.731C52.0818 166.672 54.4517 167.995 57.1887 168.216C61.9729 168.601 66.212 165.503 67.2245 161.104C67.2801 160.883 67.3246 160.652 67.358 160.42C68.0701 161.126 68.8044 161.809 69.561 162.46C79.7859 171.501 93.2597 176.992 108.002 176.992C125.425 176.992 141.547 169.45 152.573 156.208C152.685 156.076 152.796 155.955 152.896 155.822C152.94 155.855 152.974 155.889 153.018 155.911C154.12 156.671 155.277 157.101 156.434 157.212C160.017 157.531 161.941 156.175 162.909 154.973C164.946 152.481 165.012 148.237 163.143 142.327C161.93 138.523 162.72 138.258 164.823 137.53C166.525 136.946 169.096 136.053 169.708 132.767C170.575 128.048 167.627 124.795 165.736 123.241C165.813 122.061 165.847 120.859 165.847 119.668C165.847 103.482 159.049 88.8397 148.134 78.4202L147.789 78.0894C147.466 77.7917 147.144 77.494 146.821 77.2073C147.388 75.9504 150.915 67.3722 147.945 59.7973C146.365 55.7729 143.25 52.7628 138.699 50.8553C136.785 50.0614 134.86 49.6535 132.958 49.6535C131.055 49.6535 129.253 50.0394 127.417 50.8002C122.633 52.8069 118.817 57.118 116.102 61.1866C113.009 60.7125 110.45 60.7676 106.322 60.3486C103.451 60.9661 107.879 69.3017 108.402 75.1014C108.603 77.2735 109.226 80.8569 109.504 83.018C110.572 91.4087 119.139 93.3273 123.679 88.8287C125.325 87.1858 126.126 85.0137 126.049 82.8636C125.993 81.1656 127.328 79.8315 129.041 79.8866C131.211 79.9638 133.414 79.181 135.061 77.5381C135.784 76.8214 136.34 76.0055 136.73 75.1344L139.556 75.6416C142.015 77.3837 144.318 79.3133 146.454 81.4192C138.966 93.3162 105.365 113.527 105.365 113.527L58.2012 140.827L57.9119 140.992C57.6449 140.375 57.389 139.747 57.1442 139.118C56.0538 136.328 55.186 133.429 54.574 130.441C56.0538 130.849 57.656 130.838 59.2137 130.33C61.4389 129.614 63.1412 128.037 64.0535 126.085C64.7767 124.542 66.5903 123.957 68.0923 124.784C69.9838 125.821 72.3091 126.107 74.5344 125.391C80.8985 123.329 82.968 114.221 74.7346 109.624C72.7208 108.51 70.8071 107.231 69.1382 105.654C64.5208 101.299 61.9618 100.45 56.777 97.1533C54.2736 96.5027 54.0845 103.67 52.5936 109.094C51.047 108.278 48.4102 107.154 45.5285 107.154C44.9165 107.154 44.2823 107.198 43.6482 107.319C41.0113 107.815 38.8194 109.326 37.1505 111.818C35.7486 113.924 35.3035 116.217 35.8265 118.621C36.3049 120.837 37.5844 122.877 39.053 124.608C35.9377 125.358 33.3342 127.254 31.3204 130.275C29.5179 132.966 28.9505 135.898 29.6181 138.975ZM150.949 130.849C152.34 127.199 154.22 124.961 156.545 124.189C159.56 123.186 162.509 125.016 162.531 125.027L162.598 125.071C162.787 125.181 167.226 127.816 166.425 132.172C166.192 133.451 165.502 133.793 163.733 134.41C160.718 135.446 157.947 136.99 159.961 143.33C161.953 149.593 161.04 152.018 160.317 152.9C159.638 153.727 158.437 154.069 156.734 153.915C155.299 153.794 153.63 152.415 152.262 150.254C149.747 146.274 147.9 138.82 150.949 130.849ZM115.501 136.703C122.644 136.703 128.463 142.459 128.463 149.538C128.463 156.616 122.644 162.372 115.501 162.372C108.358 162.372 102.55 156.616 102.55 149.538C102.55 142.459 108.358 136.703 115.501 136.703Z" fill="#FFE5FF"/>
<path d="M152.573 156.209C152.684 156.077 152.796 155.955 152.896 155.823C152.94 155.856 152.974 155.889 153.018 155.911L152.573 156.209Z" fill="#FFE5FF"/>
<path d="M67.2242 161.105C67.2798 160.884 67.3243 160.653 67.3577 160.421C68.0698 161.127 68.8041 161.81 69.5607 162.461L67.2242 161.105Z" fill="#FFE5FF"/>
</g>
<defs>
<clipPath id="clip0_227_4293">
<rect width="169.863" height="176.768" fill="white" transform="translate(169.863 176.992) rotate(-180)"/>
</clipPath>
</defs>
</svg>
