<svg width="171" height="177" viewBox="0 0 171 177" fill="none" xmlns="http://www.w3.org/2000/svg">
<g clip-path="url(#clip0_227_4395)">
<path d="M58.0986 26.2533L60.1681 32.913C58.7996 34.2802 56.9081 35.1292 54.8275 35.1292C50.6775 35.1292 47.3174 31.7993 47.3174 27.6867C47.3174 23.574 50.6775 20.2441 54.8275 20.2441C58.3879 20.2441 61.3808 22.714 62.1374 26.0328L59.011 25.294C58.4324 25.1617 57.9317 25.691 58.0986 26.2533Z" fill="#FFE5FF"/>
<path d="M90.1199 73.7318C89.8973 75.8929 89.7082 79.5315 89.4078 81.6926C88.6178 87.4702 91.0656 96.5776 88.1171 96.5445C82.2759 94.5929 79.5945 94.3945 74.0426 91.2852C72.0398 90.1605 69.8591 89.3777 67.645 88.7823C58.5216 86.3124 58.299 76.9735 63.9734 73.4452C65.9538 72.2103 68.2681 71.9346 70.3709 72.4859C72.0287 72.9159 73.642 71.9126 73.9647 70.2476C74.3763 68.1417 75.6336 66.1901 77.6141 64.9552C83.0547 61.5702 90.9766 65.3411 90.131 73.7539L90.1199 73.7318Z" fill="#FFE5FF"/>
<path d="M88.996 117.306C89.1851 118.817 89.6302 121.331 89.7637 122.841C90.1309 126.91 93.2351 132.743 91.2212 133.173C86.9265 132.743 85.0573 133.018 80.7849 131.75C79.2384 131.298 77.6362 131.1 76.0229 131.034C69.414 130.758 67.7784 124.418 71.1051 121.132C72.2622 119.986 73.7977 119.434 75.3219 119.489C76.5236 119.534 77.4582 118.596 77.4248 117.406C77.3692 115.906 77.9255 114.384 79.0826 113.227C82.2647 110.073 88.2617 111.418 89.0071 117.295L88.996 117.306Z" fill="#FFE5FF"/>
<path d="M109.502 102.972C109.346 104.483 109.212 107.03 109.001 108.541C108.445 112.587 110.158 118.96 108.1 118.938C104.016 117.571 102.125 117.427 98.2419 115.255C96.84 114.473 95.3158 113.921 93.7581 113.502C87.3717 111.771 87.2159 105.233 91.188 102.763C92.5787 101.903 94.192 101.704 95.6718 102.09C96.8289 102.399 97.9638 101.693 98.1863 100.525C98.4756 99.0472 99.3546 97.68 100.745 96.82C104.55 94.4494 110.102 97.0846 109.502 102.972Z" fill="#FFE5FF"/>
<path d="M131.187 92.2653C130.664 93.6986 129.907 96.1354 129.34 97.5467C127.804 101.34 127.904 107.933 125.913 107.415C122.286 105.099 120.494 104.515 117.257 101.461C116.088 100.358 114.742 99.4652 113.34 98.6824C107.577 95.4738 109.023 89.0898 113.485 87.6454C115.042 87.1382 116.667 87.3477 117.991 88.0754C119.037 88.6487 120.305 88.2408 120.817 87.1602C121.462 85.793 122.653 84.6904 124.21 84.1832C128.483 82.805 133.211 86.6972 131.198 92.2653H131.187Z" fill="#FFE5FF"/>
<path d="M121.44 128C121.573 129.048 121.874 130.779 121.974 131.826C122.23 134.638 124.377 138.674 122.986 138.971C120.016 138.674 118.725 138.861 115.777 137.99C114.709 137.67 113.596 137.538 112.483 137.494C107.91 137.306 106.787 132.918 109.079 130.647C109.88 129.853 110.937 129.478 111.994 129.511C112.828 129.544 113.474 128.894 113.44 128.067C113.407 127.03 113.785 125.972 114.586 125.178C116.778 123.006 120.928 123.932 121.451 127.989L121.44 128Z" fill="#FFE5FF"/>
<path d="M135.615 118.089C135.514 119.137 135.414 120.901 135.27 121.937C134.891 124.738 136.071 129.137 134.647 129.126C131.821 128.178 130.519 128.09 127.837 126.579C126.869 126.039 125.812 125.653 124.733 125.367C120.316 124.176 120.205 119.655 122.953 117.946C123.91 117.351 125.034 117.218 126.046 117.483C126.847 117.692 127.626 117.207 127.782 116.402C127.982 115.377 128.594 114.44 129.551 113.844C132.177 112.202 136.015 114.032 135.603 118.1L135.615 118.089Z" fill="#FFE5FF"/>
<path d="M113.184 38.1068C112.828 37.5666 112.483 37.0042 112.127 36.3978L112.417 36.2324C112.684 36.8499 112.94 37.4784 113.184 38.1068Z" fill="#FFE5FF"/>
<path d="M160.003 155.775L139.564 136.126C137.996 134.616 135.537 134.528 133.857 135.906C131.053 138.21 130.04 142.036 131.342 145.41L140.644 169.623C142.602 174.728 147.92 177.749 153.361 176.856C163.463 175.191 167.358 162.842 160.003 155.775Z" fill="#FFE5FF"/>
<path d="M134.391 160.826L126.97 143.107C126.402 141.751 124.889 141.034 123.465 141.442C121.084 142.137 119.415 144.243 119.315 146.702L118.547 164.299C118.38 168.004 120.884 171.311 124.511 172.205C131.264 173.87 137.061 167.199 134.391 160.826Z" fill="#FFE5FF"/>
<path d="M155.953 148.532L142.057 135.18C140.989 134.154 140.877 132.5 141.79 131.343C143.314 129.402 145.906 128.641 148.254 129.446L165.043 135.213C168.582 136.426 170.762 139.943 170.262 143.626C169.327 150.462 160.949 153.339 155.942 148.532H155.953Z" fill="#FFE5FF"/>
<path d="M140.71 38.2499C139.965 34.8649 137.795 31.7887 135.459 29.2968C136.193 28.4919 136.883 27.7311 137.461 27.1247C144.193 20.013 139.431 11.1591 131.943 10.5417C129.206 10.3212 126.647 11.2473 124.778 12.8902C123.298 14.2023 121.073 14.0149 119.826 12.4933C118.246 10.5527 115.877 9.2296 113.14 9.00908C108.355 8.62317 104.116 11.7215 103.104 16.1208C103.048 16.3413 103.004 16.5729 102.97 16.8044C102.258 16.0988 101.524 15.4152 100.767 14.7646C90.5423 5.72335 77.0685 0.232422 62.3264 0.232422C44.9028 0.232422 28.781 7.77417 17.755 21.0163C17.6437 21.1487 17.5325 21.2699 17.4323 21.4023C17.3878 21.3692 17.3544 21.3361 17.3099 21.314C16.2084 20.5533 15.0513 20.1232 13.8942 20.013C10.3116 19.6932 8.38675 21.0494 7.41878 22.2512C5.38269 24.7431 5.31593 28.9881 7.18513 34.898C8.39788 38.702 7.60792 38.9666 5.50508 39.6943C3.80278 40.2787 1.23263 41.1718 0.620694 44.4575C-0.247147 49.1766 2.70129 52.4293 4.59273 53.9839C4.51485 55.1637 4.48147 56.3655 4.48147 57.5563C4.48147 73.7424 11.2796 88.3849 22.1943 98.8044L22.5392 99.1352C22.8619 99.4329 23.1845 99.7306 23.5072 100.017C22.9398 101.274 19.4128 109.852 22.3835 117.427C23.9634 121.452 27.0787 124.462 31.6293 126.369C33.543 127.163 35.4678 127.571 37.3704 127.571C39.273 127.571 41.0754 127.185 42.9112 126.424C47.6955 124.418 51.5117 120.107 54.2265 116.038C57.3196 116.512 59.8786 116.457 64.0064 116.876C66.877 116.259 62.4488 107.923 61.9258 102.123C61.7256 99.9511 61.1025 96.3677 60.8243 94.2066C59.7562 85.8159 51.1891 83.8973 46.6496 88.3959C45.0029 90.0388 44.2019 92.2109 44.2797 94.361C44.3354 96.059 43.0002 97.3931 41.2868 97.338C39.1172 97.2608 36.9142 98.0436 35.2676 99.6865C34.5444 100.403 33.9881 101.219 33.5986 102.09L30.7726 101.583C28.3137 99.8409 26.0106 97.9113 23.8744 95.8054C31.3623 83.9084 64.9633 63.6978 64.9633 63.6978L112.127 36.3975L112.416 36.2322C112.683 36.8496 112.939 37.4781 113.184 38.1066C114.274 40.8961 115.142 43.796 115.754 46.784C114.274 46.376 112.672 46.3871 111.115 46.8942C108.889 47.6109 107.187 49.1876 106.275 51.1392C105.552 52.6829 103.738 53.2673 102.236 52.4403C100.344 51.4039 98.0191 51.1172 95.7939 51.8339C89.4297 53.8957 87.3602 63.0032 95.5936 67.601C97.6074 68.7146 99.5211 69.9936 101.19 71.5703C105.807 75.9256 108.366 76.7746 113.551 80.0713C116.055 80.7219 116.244 73.555 117.735 68.1302C119.281 68.9462 121.918 70.0708 124.8 70.0708C125.412 70.0708 126.046 70.0267 126.68 69.9054C129.317 69.4092 131.509 67.8987 133.178 65.4068C134.58 63.3009 135.025 61.0075 134.502 58.6038C134.023 56.3876 132.744 54.3478 131.275 52.6167C134.391 51.867 136.994 49.9705 139.008 46.9494C140.81 44.259 141.378 41.3261 140.71 38.2499ZM19.3794 46.376C17.9886 50.0256 16.1083 52.2639 13.7829 53.0357C10.7678 54.0391 7.81932 52.2088 7.79707 52.1977L7.73031 52.1536C7.54117 52.0434 3.10183 49.4082 3.90291 45.0529C4.13656 43.7739 4.82638 43.4321 6.59544 42.8146C9.61063 41.7782 12.381 40.2346 10.3672 33.8947C8.37563 27.6319 9.28797 25.2062 10.0112 24.3241C10.6899 23.4972 11.8915 23.1554 13.5938 23.3097C15.0291 23.431 16.698 24.8093 18.0665 26.9704C20.581 30.9507 22.428 38.4043 19.3794 46.376ZM54.8273 40.5213C47.6844 40.5213 41.8654 34.7657 41.8654 27.687C41.8654 20.6084 47.6844 14.8528 54.8273 14.8528C61.9703 14.8528 67.7782 20.6084 67.7782 27.687C67.7782 34.7657 61.9703 40.5213 54.8273 40.5213Z" fill="#FFE5FF"/>
<path d="M17.7553 21.0156C17.6441 21.1479 17.5328 21.2692 17.4327 21.4015C17.3882 21.3685 17.3548 21.3354 17.3103 21.3133L17.7553 21.0156Z" fill="#FFE5FF"/>
<path d="M103.104 16.1199C103.048 16.3404 103.004 16.5719 102.971 16.8035C102.258 16.0978 101.524 15.4142 100.768 14.7637L103.104 16.1199Z" fill="#FFE5FF"/>
</g>
<defs>
<clipPath id="clip0_227_4395">
<rect width="169.863" height="176.768" fill="white" transform="translate(0.465332 0.232422)"/>
</clipPath>
</defs>
</svg>
